OxygenSans-Bold.ufo
<glyph name="exclam" format="1">
  <advance width="623"></advance>
  <unicode hex="0021"></unicode>
  <outline>
    <contour>
      <point x="319" y="-10" type="curve" smooth="yes"></point>
      <point x="405" y="-10"></point>
      <point x="458" y="58"></point>
      <point x="458" y="133" type="curve" smooth="yes"></point>
      <point x="458" y="208"></point>
      <point x="405" y="275"></point>
      <point x="319" y="275" type="curve" smooth="yes"></point>
      <point x="233" y="275"></point>
      <point x="179" y="208"></point>
      <point x="179" y="133" type="curve" smooth="yes"></point>
      <point x="179" y="59"></point>
      <point x="233" y="-10"></point>
    </contour>
    <contour>
      <point x="274" y="449" type="line"></point>
      <point x="372" y="449" type="line"></point>
      <point x="430" y="1327" type="line"></point>
      <point x="430" y="1513" type="line"></point>
      <point x="209" y="1513" type="line"></point>
      <point x="209" y="1327" type="line"></point>
    </contour>
  </outline>
</glyph>
<glyph name="quotedbl" format="1">
  <advance width="900"></advance>
  <unicode hex="0022"></unicode>
  <outline>
    <contour>
      <point x="201" y="903" type="line"></point>
      <point x="335" y="903" type="line"></point>
      <point x="384" y="1472" type="line"></point>
      <point x="157" y="1472" type="line"></point>
    </contour>
    <contour>
      <point x="533" y="903" type="line"></point>
      <point x="666" y="903" type="line"></point>
      <point x="716" y="1472" type="line"></point>
      <point x="488" y="1472" type="line"></point>
    </contour>
  </outline>
</glyph>
<glyph name="numbersign" format="1">
  <advance width="1165"></advance>
  <unicode hex="0023"></unicode>
  <outline>
    <contour>
      <point x="663" y="544" type="line"></point>
      <point x="424" y="544" type="line"></point>
      <point x="502" y="940" type="line"></point>
      <point x="741" y="940" type="line"></point>
    </contour>
    <contour>
      <point x="556" y="-8" type="line"></point>
      <point x="696" y="-8" type="line"></point>
      <point x="783" y="434" type="line"></point>
      <point x="978" y="434" type="line"></point>
      <point x="994" y="544" type="line"></point>
      <point x="805" y="544" type="line"></point>
      <point x="882" y="940" type="line"></point>
      <point x="1065" y="940" type="line"></point>
      <point x="1082" y="1051" type="line"></point>
      <point x="903" y="1051" type="line"></point>
      <point x="976" y="1421" type="line"></point>
      <point x="835" y="1421" type="line"></point>
      <point x="763" y="1051" type="line"></point>
      <point x="523" y="1051" type="line"></point>
      <point x="596" y="1421" type="line"></point>
      <point x="454" y="1421" type="line"></point>
      <point x="382" y="1051" type="line"></point>
      <point x="183" y="1051" type="line"></point>
      <point x="167" y="940" type="line"></point>
      <point x="361" y="940" type="line"></point>
      <point x="283" y="544" type="line"></point>
      <point x="96" y="544" type="line"></point>
      <point x="80" y="434" type="line"></point>
      <point x="262" y="434" type="line"></point>
      <point x="176" y="-8" type="line"></point>
      <point x="316" y="-8" type="line"></point>
      <point x="402" y="434" type="line"></point>
      <point x="642" y="434" type="line"></point>
    </contour>
  </outline>
</glyph>
<glyph name="dollar" format="1">
  <advance width="1185"/>
  <unicode hex="0024"/>
  <outline>
    <contour>
      <point x="726" y="1779" type="line"/>
      <point x="564" y="1779" type="line"/>
      <point x="546" y="1441" type="line"/>
      <point x="669" y="1441" type="line"/>
    </contour>
    <contour>
      <point x="448" y="-278" type="line"/>
      <point x="614" y="-278" type="line"/>
      <point x="627" y="60" type="line"/>
      <point x="510" y="60" type="line"/>
    </contour>
    <component base="S"/>
  </outline>
</glyph>
<glyph name="percent" format="1">
  <advance width="1691"></advance>
  <unicode hex="0025"></unicode>
  <outline>
    <contour>
      <point x="1285" y="-20" type="curve" smooth="yes"></point>
      <point x="1046" y="-20"></point>
      <point x="923" y="155"></point>
      <point x="923" y="380" type="curve" smooth="yes"></point>
      <point x="923" y="604"></point>
      <point x="1050" y="776"></point>
      <point x="1285" y="776" type="curve" smooth="yes"></point>
      <point x="1525" y="776"></point>
      <point x="1649" y="608"></point>
      <point x="1649" y="380" type="curve" smooth="yes"></point>
      <point x="1649" y="155"></point>
      <point x="1522" y="-20"></point>
    </contour>
    <contour>
      <point x="1288" y="127" type="curve" smooth="yes"></point>
      <point x="1422" y="127"></point>
      <point x="1476" y="240"></point>
      <point x="1476" y="382" type="curve" smooth="yes"></point>
      <point x="1476" y="529"></point>
      <point x="1421" y="633"></point>
      <point x="1288" y="633" type="curve" smooth="yes"></point>
      <point x="1153" y="633"></point>
      <point x="1097" y="524"></point>
      <point x="1097" y="382" type="curve" smooth="yes"></point>
      <point x="1097" y="237"></point>
      <point x="1153" y="127"></point>
    </contour>
    <contour>
      <point x="303" y="864" type="curve" smooth="yes"></point>
      <point x="437" y="864"></point>
      <point x="491" y="976"></point>
      <point x="491" y="1119" type="curve" smooth="yes"></point>
      <point x="491" y="1266"></point>
      <point x="436" y="1370"></point>
      <point x="303" y="1370" type="curve" smooth="yes"></point>
      <point x="168" y="1370"></point>
      <point x="112" y="1261"></point>
      <point x="112" y="1119" type="curve" smooth="yes"></point>
      <point x="112" y="973"></point>
      <point x="168" y="864"></point>
    </contour>
    <contour>
      <point x="300" y="717" type="curve" smooth="yes"></point>
      <point x="61" y="717"></point>
      <point x="-56" y="892"></point>
      <point x="-56" y="1116" type="curve" smooth="yes"></point>
      <point x="-56" y="1341"></point>
      <point x="65" y="1513"></point>
      <point x="300" y="1513" type="curve" smooth="yes"></point>
      <point x="540" y="1513"></point>
      <point x="664" y="1344"></point>
      <point x="664" y="1116" type="curve" smooth="yes"></point>
      <point x="664" y="892"></point>
      <point x="537" y="717"></point>
    </contour>
    <contour>
      <point x="278" y="0" type="line"></point>
      <point x="1121" y="1493" type="line"></point>
      <point x="1304" y="1493" type="line"></point>
      <point x="470" y="0" type="line"></point>
    </contour>
  </outline>
</glyph>
<glyph name="ampersand" format="1">
  <advance width="1335"></advance>
  <unicode hex="0026"></unicode>
  <outline>
    <contour>
      <point x="545" y="-18" type="curve" smooth="yes"></point>
      <point x="723" y="-18"></point>
      <point x="816" y="19"></point>
      <point x="942" y="114" type="curve"></point>
      <point x="1076" y="-16" type="line"></point>
      <point x="1275" y="63" type="line"></point>
      <point x="1092" y="254" type="line"></point>
      <point x="1158" y="326"></point>
      <point x="1228" y="437"></point>
      <point x="1269" y="525" type="curve"></point>
      <point x="1116" y="627" type="line"></point>
      <point x="1080" y="551"></point>
      <point x="1018" y="448"></point>
      <point x="967" y="390" type="curve"></point>
      <point x="614" y="788" type="line"></point>
      <point x="782" y="878"></point>
      <point x="941" y="1016"></point>
      <point x="941" y="1197" type="curve" smooth="yes"></point>
      <point x="941" y="1414"></point>
      <point x="756" y="1509"></point>
      <point x="565" y="1509" type="curve" smooth="yes"></point>
      <point x="357" y="1509"></point>
      <point x="175" y="1387"></point>
      <point x="175" y="1171" type="curve" smooth="yes"></point>
      <point x="175" y="1041"></point>
      <point x="237" y="922"></point>
      <point x="325" y="822" type="curve"></point>
      <point x="163" y="729"></point>
      <point x="39" y="618"></point>
      <point x="39" y="401" type="curve" smooth="yes"></point>
      <point x="39" y="119"></point>
      <point x="256" y="-18"></point>
    </contour>
    <contour>
      <point x="554" y="160" type="curve" smooth="yes"></point>
      <point x="385" y="160"></point>
      <point x="257" y="240"></point>
      <point x="257" y="410" type="curve" smooth="yes"></point>
      <point x="257" y="536"></point>
      <point x="328" y="627"></point>
      <point x="433" y="689" type="curve"></point>
      <point x="821" y="250" type="line"></point>
      <point x="750" y="192"></point>
      <point x="667" y="160"></point>
    </contour>
    <contour>
      <point x="509" y="915" type="curve"></point>
      <point x="425" y="1001"></point>
      <point x="383" y="1096"></point>
      <point x="383" y="1188" type="curve" smooth="yes"></point>
      <point x="383" y="1294"></point>
      <point x="465" y="1348"></point>
      <point x="570" y="1348" type="curve" smooth="yes"></point>
      <point x="673" y="1348"></point>
      <point x="737" y="1296"></point>
      <point x="737" y="1192" type="curve" smooth="yes"></point>
      <point x="737" y="1073"></point>
      <point x="624" y="975"></point>
    </contour>
  </outline>
</glyph>
<glyph name="parenleft" format="1">
  <advance width="805"></advance>
  <unicode hex="0028"></unicode>
  <outline>
    <contour>
      <point x="447" y="-186" type="curve"></point>
      <point x="656" y="-186" type="line"></point>
      <point x="491" y="90"></point>
      <point x="394" y="384"></point>
      <point x="394" y="711" type="curve" smooth="yes"></point>
      <point x="394" y="1043"></point>
      <point x="517" y="1371"></point>
      <point x="658" y="1587" type="curve"></point>
      <point x="446" y="1587" type="line"></point>
      <point x="288" y="1362"></point>
      <point x="176" y="1052"></point>
      <point x="176" y="708" type="curve" smooth="yes"></point>
      <point x="176" y="353"></point>
      <point x="282" y="51"></point>
    </contour>
  </outline>
</glyph>
<glyph name="parenright" format="1">
  <advance width="805"/>
  <unicode hex="0029"/>
  <outline>
    <contour>
      <point x="131" y="-186" type="curve"/>
      <point x="342" y="-186" type="line"/>
      <point x="498" y="30"/>
      <point x="613" y="364"/>
      <point x="613" y="722" type="curve" smooth="yes"/>
      <point x="613" y="1063"/>
      <point x="509" y="1342"/>
      <point x="342" y="1587" type="curve"/>
      <point x="132" y="1587" type="line"/>
      <point x="299" y="1307"/>
      <point x="394" y="1037"/>
      <point x="394" y="721" type="curve" smooth="yes"/>
      <point x="394" y="378"/>
      <point x="270" y="26"/>
    </contour>
  </outline>
</glyph>
<glyph name="asterisk" format="1">
  <advance width="965"></advance>
  <unicode hex="002A"></unicode>
  <outline>
    <contour>
      <point x="303" y="525" type="line"></point>
      <point x="121" y="628" type="line"></point>
      <point x="357" y="930" type="line"></point>
      <point x="14" y="1006" type="line"></point>
      <point x="72" y="1200" type="line"></point>
      <point x="409" y="1062" type="line"></point>
      <point x="375" y="1442" type="line"></point>
      <point x="583" y="1442" type="line"></point>
      <point x="549" y="1062" type="line"></point>
      <point x="888" y="1200" type="line"></point>
      <point x="946" y="1006" type="line"></point>
      <point x="599" y="930" type="line"></point>
      <point x="640" y="878"></point>
      <point x="795" y="683"></point>
      <point x="838" y="628" type="curve"></point>
      <point x="812" y="611"></point>
      <point x="685" y="540"></point>
      <point x="659" y="524" type="curve"></point>
      <point x="476" y="848" type="line"></point>
    </contour>
  </outline>
</glyph>
<glyph name="plus" format="1">
  <advance width="1185"></advance>
  <unicode hex="002B"></unicode>
  <outline>
    <contour>
      <point x="506" y="154" type="line"></point>
      <point x="679" y="154" type="line"></point>
      <point x="679" y="566" type="line"></point>
      <point x="1063" y="566" type="line"></point>
      <point x="1063" y="736" type="line"></point>
      <point x="680" y="736" type="line"></point>
      <point x="680" y="1144" type="line"></point>
      <point x="507" y="1144" type="line"></point>
      <point x="507" y="736" type="line"></point>
      <point x="119" y="736" type="line"></point>
      <point x="119" y="566" type="line"></point>
      <point x="506" y="566" type="line"></point>
    </contour>
  </outline>
</glyph>
<glyph name="comma" format="1">
  <advance width="632"></advance>
  <unicode hex="002C"></unicode>
  <outline>
    <contour>
      <point x="155" y="-369" type="curve"></point>
      <point x="306" y="-369" type="line"></point>
      <point x="306" y="-369"></point>
      <point x="440" y="156"></point>
      <point x="440" y="169" type="curve"></point>
      <point x="445" y="218" type="line"></point>
      <point x="227" y="218" type="line"></point>
      <point x="227" y="186"></point>
      <point x="155" y="-369"></point>
    </contour>
  </outline>
</glyph>
<glyph name="period" format="1">
  <advance width="632"></advance>
  <unicode hex="002E"></unicode>
  <outline>
    <contour>
      <point x="317" y="-29" type="curve" smooth="yes"></point>
      <point x="400" y="-29"></point>
      <point x="453" y="34"></point>
      <point x="453" y="104" type="curve" smooth="yes"></point>
      <point x="453" y="175"></point>
      <point x="400" y="239"></point>
      <point x="317" y="239" type="curve" smooth="yes"></point>
      <point x="233" y="239"></point>
      <point x="179" y="175"></point>
      <point x="179" y="104" type="curve" smooth="yes"></point>
      <point x="179" y="33"></point>
      <point x="234" y="-29"></point>
    </contour>
  </outline>
</glyph>
<glyph name="slash" format="1">
  <advance width="999"></advance>
  <unicode hex="002F"></unicode>
  <outline>
    <contour>
      <point x="104" y="-159" type="line"></point>
      <point x="285" y="-159" type="line"></point>
      <point x="919" y="1417" type="line"></point>
      <point x="734" y="1417" type="line"></point>
    </contour>
  </outline>
</glyph>
<glyph name="zero" format="1">
  <advance width="1213"></advance>
  <unicode hex="0030"></unicode>
  <outline>
    <contour>
      <point x="614" y="-20" type="curve" smooth="yes"></point>
      <point x="989" y="-20"></point>
      <point x="1141" y="333"></point>
      <point x="1141" y="746" type="curve" smooth="yes"></point>
      <point x="1141" y="1174"></point>
      <point x="981" y="1513"></point>
      <point x="614" y="1513" type="curve" smooth="yes"></point>
      <point x="249" y="1513"></point>
      <point x="82" y="1176"></point>
      <point x="82" y="746" type="curve" smooth="yes"></point>
      <point x="82" y="333"></point>
      <point x="239" y="-20"></point>
    </contour>
    <contour>
      <point x="614" y="184" type="curve" smooth="yes"></point>
      <point x="413" y="184"></point>
      <point x="326" y="412"></point>
      <point x="326" y="755" type="curve" smooth="yes"></point>
      <point x="327" y="1085"></point>
      <point x="414" y="1309"></point>
      <point x="614" y="1309" type="curve" smooth="yes"></point>
      <point x="815" y="1309"></point>
      <point x="897" y="1095"></point>
      <point x="897" y="753" type="curve" smooth="yes"></point>
      <point x="897" y="411"></point>
      <point x="815" y="184"></point>
    </contour>
  </outline>
</glyph>
<glyph name="one" format="1">
  <advance width="1185"></advance>
  <unicode hex="0031"></unicode>
  <outline>
    <contour>
      <point x="119" y="0" type="line"></point>
      <point x="1059" y="0" type="line"></point>
      <point x="1059" y="184" type="line"></point>
      <point x="648" y="184" type="line"></point>
      <point x="732" y="96" type="line"></point>
      <point x="732" y="1456" type="line"></point>
      <point x="519" y="1456" type="line"></point>
      <point x="438" y="1397"></point>
      <point x="239" y="1333"></point>
      <point x="131" y="1306" type="curve"></point>
      <point x="131" y="1121" type="line"></point>
      <point x="259" y="1140"></point>
      <point x="470" y="1210"></point>
      <point x="537" y="1270" type="curve"></point>
      <point x="492" y="1302" type="line"></point>
      <point x="492" y="96" type="line"></point>
      <point x="576" y="184" type="line"></point>
      <point x="119" y="184" type="line"></point>
    </contour>
  </outline>
</glyph>
<glyph name="two" format="1">
  <advance width="1137"/>
  <unicode hex="0032"/>
  <outline>
    <contour>
      <point x="138.0" y="0.0" type="line"/>
      <point x="983.0" y="0.0" type="line"/>
      <point x="1003" y="192" type="line"/>
      <point x="253" y="192" type="line"/>
      <point x="297" y="113" type="line"/>
      <point x="724.0" y="526.0" type="line" smooth="yes"/>
      <point x="940" y="734"/>
      <point x="1023" y="880"/>
      <point x="1003" y="1071" type="curve" smooth="yes"/>
      <point x="972" y="1363"/>
      <point x="764.0" y="1480.0"/>
      <point x="534.0" y="1480.0" type="curve" smooth="yes"/>
      <point x="292.0" y="1480.0"/>
      <point x="146.0" y="1349.0"/>
      <point x="68.0" y="1235.0" type="curve"/>
      <point x="195.0" y="1101.0" type="line"/>
      <point x="216.0" y="1101.0" type="line"/>
      <point x="279.0" y="1199.0"/>
      <point x="398.0" y="1282.0"/>
      <point x="516.0" y="1282.0" type="curve" smooth="yes"/>
      <point x="645.0" y="1282.0"/>
      <point x="756.0" y="1211.0"/>
      <point x="766.0" y="1051.0" type="curve" smooth="yes"/>
      <point x="775.0" y="925.0"/>
      <point x="701" y="817"/>
      <point x="580" y="692" type="curve" smooth="yes"/>
      <point x="101.0" y="198.0" type="line"/>
    </contour>
  </outline>
</glyph>
<glyph name="three" format="1">
  <advance width="1103"></advance>
  <unicode hex="0033"></unicode>
  <outline>
    <contour>
      <point x="517" y="-18" type="curve" smooth="yes"></point>
      <point x="797" y="-18"></point>
      <point x="1003" y="126"></point>
      <point x="1003" y="404" type="curve" smooth="yes"></point>
      <point x="1003" y="595"></point>
      <point x="891" y="735"></point>
      <point x="631" y="786" type="curve"></point>
      <point x="612" y="752" type="line"></point>
      <point x="829" y="791"></point>
      <point x="965" y="956"></point>
      <point x="965" y="1124" type="curve" smooth="yes"></point>
      <point x="965" y="1361"></point>
      <point x="776" y="1513"></point>
      <point x="516" y="1513" type="curve" smooth="yes"></point>
      <point x="291" y="1513"></point>
      <point x="166" y="1443"></point>
      <point x="70" y="1349" type="curve"></point>
      <point x="184" y="1186" type="line"></point>
      <point x="258" y="1259"></point>
      <point x="369" y="1309"></point>
      <point x="492" y="1309" type="curve" smooth="yes"></point>
      <point x="651" y="1309"></point>
      <point x="737" y="1234"></point>
      <point x="737" y="1107" type="curve" smooth="yes"></point>
      <point x="737" y="916"></point>
      <point x="564" y="872"></point>
      <point x="360" y="857" type="curve" smooth="yes"></point>
      <point x="294" y="853" type="line"></point>
      <point x="317" y="668" type="line"></point>
      <point x="359" y="668" type="line" smooth="yes"></point>
      <point x="599" y="668"></point>
      <point x="766" y="626"></point>
      <point x="766" y="418" type="curve" smooth="yes"></point>
      <point x="766" y="269"></point>
      <point x="663" y="184"></point>
      <point x="496" y="184" type="curve" smooth="yes"></point>
      <point x="357" y="184"></point>
      <point x="242" y="253"></point>
      <point x="165" y="329" type="curve"></point>
      <point x="63" y="156" type="line"></point>
      <point x="150" y="66"></point>
      <point x="281" y="-18"></point>
    </contour>
  </outline>
</glyph>
<glyph name="four" format="1">
  <advance width="1113"></advance>
  <unicode hex="0034"></unicode>
  <outline>
    <contour>
      <point x="282" y="530" type="line"></point>
      <point x="687" y="1221" type="line"></point>
      <point x="687" y="530" type="line"></point>
    </contour>
    <contour>
      <point x="687" y="0" type="line"></point>
      <point x="911" y="0" type="line"></point>
      <point x="911" y="350" type="line"></point>
      <point x="1075" y="350" type="line"></point>
      <point x="1106" y="533" type="line"></point>
      <point x="911" y="533" type="line"></point>
      <point x="911" y="1489" type="line"></point>
      <point x="645" y="1489" type="line"></point>
      <point x="52" y="531" type="line"></point>
      <point x="52" y="350" type="line"></point>
      <point x="687" y="350" type="line"></point>
    </contour>
  </outline>
</glyph>
<glyph name="five" format="1">
  <advance width="1103"></advance>
  <unicode hex="0035"></unicode>
  <outline>
    <contour>
      <point x="504" y="-20" type="curve" smooth="yes"></point>
      <point x="821" y="-20"></point>
      <point x="1027" y="170"></point>
      <point x="1027" y="473" type="curve" smooth="yes"></point>
      <point x="1027" y="738"></point>
      <point x="860" y="937"></point>
      <point x="598" y="937" type="curve" smooth="yes"></point>
      <point x="475" y="937"></point>
      <point x="395" y="916"></point>
      <point x="343" y="842" type="curve"></point>
      <point x="382" y="1309" type="line"></point>
      <point x="954" y="1309" type="line"></point>
      <point x="970" y="1493" type="line"></point>
      <point x="196" y="1493" type="line"></point>
      <point x="132" y="672" type="line"></point>
      <point x="303" y="646" type="line"></point>
      <point x="361" y="730"></point>
      <point x="475" y="763"></point>
      <point x="559" y="763" type="curve" smooth="yes"></point>
      <point x="724" y="763"></point>
      <point x="792" y="637"></point>
      <point x="792" y="474" type="curve" smooth="yes"></point>
      <point x="792" y="289"></point>
      <point x="707" y="169"></point>
      <point x="510" y="169" type="curve" smooth="yes"></point>
      <point x="363" y="169"></point>
      <point x="177" y="263"></point>
      <point x="132" y="293" type="curve"></point>
      <point x="70" y="114" type="line"></point>
      <point x="124" y="76"></point>
      <point x="309" y="-20"></point>
    </contour>
  </outline>
</glyph>
<glyph name="six" format="1">
  <advance width="1158"></advance>
  <unicode hex="0036"></unicode>
  <outline>
    <contour>
      <point x="578" y="-19" type="curve" smooth="yes"></point>
      <point x="874" y="-19"></point>
      <point x="1086" y="176"></point>
      <point x="1083" y="453" type="curve" smooth="yes"></point>
      <point x="1076" y="1025"></point>
      <point x="443" y="1048"></point>
      <point x="306" y="672" type="curve"></point>
      <point x="306" y="661" type="line"></point>
      <point x="306" y="661"></point>
      <point x="510" y="906"></point>
      <point x="588" y="1020" type="curve" smooth="yes"></point>
      <point x="912" y="1493" type="line"></point>
      <point x="642" y="1493" type="line"></point>
      <point x="278" y="966" type="line"></point>
      <point x="161" y="800"></point>
      <point x="70" y="663"></point>
      <point x="70" y="457" type="curve" smooth="yes"></point>
      <point x="70" y="184"></point>
      <point x="269" y="-19"></point>
    </contour>
    <contour>
      <point x="570" y="163" type="curve" smooth="yes"></point>
      <point x="391" y="163"></point>
      <point x="300" y="285"></point>
      <point x="300" y="446" type="curve" smooth="yes"></point>
      <point x="300" y="861"></point>
      <point x="852" y="866"></point>
      <point x="852" y="450" type="curve" smooth="yes"></point>
      <point x="852" y="288"></point>
      <point x="752" y="163"></point>
    </contour>
  </outline>
</glyph>
<glyph name="seven" format="1">
  <advance width="1032"></advance>
  <unicode hex="0037"></unicode>
  <outline>
    <contour>
      <point x="220" y="0" type="line"></point>
      <point x="465" y="0" type="line"></point>
      <point x="945" y="1242" type="line"></point>
      <point x="932" y="1398" type="line"></point>
      <point x="55" y="1398" type="line"></point>
      <point x="69" y="1211" type="line"></point>
      <point x="688" y="1211" type="line"></point>
    </contour>
  </outline>
</glyph>
<glyph name="eight" format="1">
  <advance width="1113"></advance>
  <unicode hex="0038"></unicode>
  <outline>
    <contour>
      <point x="566" y="-20" type="curve" smooth="yes"></point>
      <point x="830" y="-20"></point>
      <point x="1056" y="117"></point>
      <point x="1056" y="384" type="curve" smooth="yes"></point>
      <point x="1056" y="570"></point>
      <point x="951" y="721"></point>
      <point x="797" y="787" type="curve"></point>
      <point x="932" y="852"></point>
      <point x="1028" y="961"></point>
      <point x="1028" y="1133" type="curve" smooth="yes"></point>
      <point x="1028" y="1380"></point>
      <point x="824" y="1513"></point>
      <point x="565" y="1513" type="curve" smooth="yes"></point>
      <point x="307" y="1513"></point>
      <point x="100" y="1380"></point>
      <point x="100" y="1133" type="curve" smooth="yes"></point>
      <point x="100" y="958"></point>
      <point x="204" y="846"></point>
      <point x="340" y="786" type="curve"></point>
      <point x="178" y="717"></point>
      <point x="71" y="576"></point>
      <point x="71" y="384" type="curve" smooth="yes"></point>
      <point x="71" y="117"></point>
      <point x="302" y="-20"></point>
    </contour>
    <contour>
      <point x="566" y="148" type="curve" smooth="yes"></point>
      <point x="389" y="148"></point>
      <point x="303" y="233"></point>
      <point x="303" y="388" type="curve" smooth="yes"></point>
      <point x="303" y="549"></point>
      <point x="408" y="660"></point>
      <point x="566" y="699" type="curve"></point>
      <point x="724" y="660"></point>
      <point x="825" y="546"></point>
      <point x="825" y="389" type="curve" smooth="yes"></point>
      <point x="825" y="230"></point>
      <point x="747" y="148"></point>
    </contour>
    <contour>
      <point x="566" y="846" type="curve"></point>
      <point x="404" y="883"></point>
      <point x="320" y="989"></point>
      <point x="320" y="1136" type="curve" smooth="yes"></point>
      <point x="320" y="1263"></point>
      <point x="418" y="1339"></point>
      <point x="566" y="1339" type="curve" smooth="yes"></point>
      <point x="715" y="1339"></point>
      <point x="808" y="1263"></point>
      <point x="808" y="1136" type="curve" smooth="yes"></point>
      <point x="808" y="989"></point>
      <point x="729" y="883"></point>
    </contour>
  </outline>
</glyph>
<glyph name="nine" format="1">
  <advance width="1185"/>
  <unicode hex="0039"/>
  <outline>
    <contour>
      <point x="589" y="725" type="curve" smooth="yes"/>
      <point x="405" y="725"/>
      <point x="319" y="842"/>
      <point x="319" y="1013" type="curve" smooth="yes"/>
      <point x="319" y="1177"/>
      <point x="421" y="1293"/>
      <point x="603" y="1293" type="curve" smooth="yes"/>
      <point x="782" y="1293"/>
      <point x="873" y="1180"/>
      <point x="873" y="1018" type="curve" smooth="yes"/>
      <point x="873" y="820"/>
      <point x="756" y="725"/>
    </contour>
    <contour>
      <point x="269.0" y="0.0" type="line"/>
      <point x="525.0" y="0.0" type="line"/>
      <point x="525.0" y="0.0"/>
      <point x="880.0" y="478.0"/>
      <point x="896.0" y="499.0" type="curve" smooth="yes"/>
      <point x="1009.0" y="658.0"/>
      <point x="1102.0" y="796.0"/>
      <point x="1102.0" y="998.0" type="curve" smooth="yes"/>
      <point x="1102.0" y="1272.0"/>
      <point x="902.0" y="1480.0"/>
      <point x="593.0" y="1480.0" type="curve" smooth="yes"/>
      <point x="297.0" y="1480.0"/>
      <point x="74.0" y="1280.0"/>
      <point x="88.0" y="1001.0" type="curve" smooth="yes"/>
      <point x="102.0" y="718.0"/>
      <point x="307.0" y="564.0"/>
      <point x="514.0" y="564.0" type="curve" smooth="yes"/>
      <point x="700.0" y="564.0"/>
      <point x="822.0" y="670.0"/>
      <point x="892.0" y="778.0" type="curve"/>
      <point x="879.0" y="784.0" type="line"/>
      <point x="879.0" y="784.0"/>
      <point x="647" y="522"/>
      <point x="606.0" y="468.0" type="curve" smooth="yes"/>
      <point x="269" y="27" type="line"/>
    </contour>
  </outline>
</glyph>
<glyph name="colon" format="1">
  <advance width="667"></advance>
  <unicode hex="003A"></unicode>
  <outline>
    <contour>
      <point x="336" y="820" type="curve" smooth="yes"></point>
      <point x="419" y="820"></point>
      <point x="472" y="886"></point>
      <point x="472" y="959" type="curve" smooth="yes"></point>
      <point x="472" y="1032"></point>
      <point x="419" y="1100"></point>
      <point x="336" y="1100" type="curve" smooth="yes"></point>
      <point x="252" y="1100"></point>
      <point x="198" y="1032"></point>
      <point x="198" y="959" type="curve" smooth="yes"></point>
      <point x="198" y="885"></point>
      <point x="253" y="820"></point>
    </contour>
    <contour>
      <point x="337" y="-6" type="curve" smooth="yes"></point>
      <point x="420" y="-6"></point>
      <point x="473" y="60"></point>
      <point x="473" y="133" type="curve" smooth="yes"></point>
      <point x="473" y="207"></point>
      <point x="420" y="274"></point>
      <point x="337" y="274" type="curve" smooth="yes"></point>
      <point x="253" y="274"></point>
      <point x="199" y="207"></point>
      <point x="199" y="133" type="curve" smooth="yes"></point>
      <point x="199" y="59"></point>
      <point x="254" y="-6"></point>
    </contour>
  </outline>
</glyph>
<glyph name="semicolon" format="1">
  <advance width="667"></advance>
  <unicode hex="003B"></unicode>
  <outline>
    <contour>
      <point x="335" y="809" type="curve" smooth="yes"></point>
      <point x="418" y="809"></point>
      <point x="471" y="875"></point>
      <point x="471" y="948" type="curve" smooth="yes"></point>
      <point x="471" y="1022"></point>
      <point x="418" y="1089"></point>
      <point x="335" y="1089" type="curve" smooth="yes"></point>
      <point x="251" y="1089"></point>
      <point x="197" y="1022"></point>
      <point x="197" y="948" type="curve" smooth="yes"></point>
      <point x="197" y="874"></point>
      <point x="252" y="809"></point>
    </contour>
    <contour>
      <point x="179" y="-306" type="line"></point>
      <point x="316" y="-306" type="line"></point>
      <point x="440" y="241" type="line"></point>
      <point x="233" y="241" type="line"></point>
    </contour>
  </outline>
</glyph>
<glyph name="less" format="1">
  <advance width="1113"></advance>
  <unicode hex="003C"></unicode>
  <outline>
    <contour>
      <point x="1003" y="162" type="line"></point>
      <point x="1003" y="162"></point>
      <point x="1003" y="358"></point>
      <point x="1002" y="359" type="curve" smooth="yes"></point>
      <point x="300" y="686" type="line"></point>
      <point x="1004" y="1041" type="line"></point>
      <point x="1004" y="1231" type="line"></point>
      <point x="64" y="738" type="line"></point>
      <point x="64" y="623" type="line"></point>
    </contour>
  </outline>
</glyph>
<glyph name="equal" format="1">
  <advance width="1132"></advance>
  <unicode hex="003D"></unicode>
  <outline>
    <contour>
      <point x="94" y="826" type="line"></point>
      <point x="1025" y="826" type="line"></point>
      <point x="1025" y="1003" type="line"></point>
      <point x="94" y="1003" type="line"></point>
    </contour>
    <contour>
      <point x="94" y="450" type="line"></point>
      <point x="1025" y="450" type="line"></point>
      <point x="1025" y="627" type="line"></point>
      <point x="94" y="627" type="line"></point>
    </contour>
  </outline>
</glyph>
<glyph name="greater" format="1">
  <advance width="1065"></advance>
  <unicode hex="003E"></unicode>
  <outline>
    <contour>
      <point x="69" y="158" type="line"></point>
      <point x="1010" y="597" type="line"></point>
      <point x="1010" y="707" type="line"></point>
      <point x="70" y="1185" type="line"></point>
      <point x="70" y="1001" type="line"></point>
      <point x="770" y="658" type="line"></point>
      <point x="69" y="348" type="line"></point>
    </contour>
  </outline>
</glyph>
<glyph name="question" format="1">
  <advance width="999"></advance>
  <unicode hex="003F"></unicode>
  <outline>
    <contour>
      <point x="370" y="-9" type="curve" smooth="yes"></point>
      <point x="454" y="-9"></point>
      <point x="506" y="57"></point>
      <point x="506" y="129" type="curve" smooth="yes"></point>
      <point x="506" y="201"></point>
      <point x="454" y="265"></point>
      <point x="370" y="265" type="curve" smooth="yes"></point>
      <point x="285" y="265"></point>
      <point x="231" y="201"></point>
      <point x="231" y="129" type="curve" smooth="yes"></point>
      <point x="231" y="57"></point>
      <point x="286" y="-9"></point>
    </contour>
    <contour>
      <point x="417" y="1239" type="curve" smooth="yes"></point>
      <point x="503" y="1239"></point>
      <point x="589" y="1182"></point>
      <point x="590" y="1070" type="curve" smooth="yes"></point>
      <point x="590" y="877"></point>
      <point x="398" y="799"></point>
      <point x="333" y="449" type="curve"></point>
      <point x="409" y="432" type="line"></point>
      <point x="492" y="669"></point>
      <point x="845" y="811"></point>
      <point x="845" y="1121" type="curve" smooth="yes"></point>
      <point x="845" y="1345"></point>
      <point x="653" y="1454"></point>
      <point x="451" y="1454" type="curve" smooth="yes"></point>
      <point x="330" y="1454"></point>
      <point x="206" y="1415"></point>
      <point x="117" y="1339" type="curve"></point>
      <point x="177" y="1159" type="line"></point>
      <point x="246" y="1198"></point>
      <point x="327" y="1239"></point>
    </contour>
  </outline>
</glyph>
<glyph name="at" format="1">
  <advance width="1848"></advance>
  <unicode hex="0040"></unicode>
  <outline>
    <contour>
      <point x="899" y="-151" type="curve" smooth="yes"></point>
      <point x="1090" y="-151"></point>
      <point x="1283" y="-106"></point>
      <point x="1411" y="-18" type="curve"></point>
      <point x="1368" y="100" type="line"></point>
      <point x="1236" y="24"></point>
      <point x="1066" y="-18"></point>
      <point x="902" y="-18" type="curve" smooth="yes"></point>
      <point x="494" y="-18"></point>
      <point x="266" y="278"></point>
      <point x="266" y="651" type="curve" smooth="yes"></point>
      <point x="266" y="1039"></point>
      <point x="524" y="1388"></point>
      <point x="959" y="1388" type="curve" smooth="yes"></point>
      <point x="1387" y="1388"></point>
      <point x="1587" y="1105"></point>
      <point x="1587" y="800" type="curve" smooth="yes"></point>
      <point x="1587" y="526"></point>
      <point x="1471" y="386"></point>
      <point x="1354" y="386" type="curve" smooth="yes"></point>
      <point x="1279" y="386"></point>
      <point x="1229" y="446"></point>
      <point x="1229" y="529" type="curve" smooth="yes"></point>
      <point x="1229" y="654"></point>
      <point x="1266" y="841"></point>
      <point x="1294" y="1046" type="curve"></point>
      <point x="1208" y="1090"></point>
      <point x="1069" y="1118"></point>
      <point x="973" y="1118" type="curve" smooth="yes"></point>
      <point x="689" y="1118"></point>
      <point x="531" y="863"></point>
      <point x="531" y="613" type="curve" smooth="yes"></point>
      <point x="531" y="415"></point>
      <point x="633" y="261"></point>
      <point x="835" y="261" type="curve" smooth="yes"></point>
      <point x="1014" y="261"></point>
      <point x="1114" y="438"></point>
      <point x="1147" y="565" type="curve"></point>
      <point x="1104" y="565" type="line"></point>
      <point x="1117" y="386"></point>
      <point x="1197" y="265"></point>
      <point x="1354" y="265" type="curve" smooth="yes"></point>
      <point x="1525" y="265"></point>
      <point x="1730" y="443"></point>
      <point x="1730" y="792" type="curve" smooth="yes"></point>
      <point x="1730" y="1240"></point>
      <point x="1395" y="1522"></point>
      <point x="966" y="1522" type="curve" smooth="yes"></point>
      <point x="469" y="1522"></point>
      <point x="106" y="1154"></point>
      <point x="106" y="655" type="curve" smooth="yes"></point>
      <point x="106" y="156"></point>
      <point x="430" y="-151"></point>
    </contour>
    <contour>
      <point x="852" y="380" type="curve" smooth="yes"></point>
      <point x="744" y="380"></point>
      <point x="688" y="469"></point>
      <point x="688" y="610" type="curve" smooth="yes"></point>
      <point x="688" y="812"></point>
      <point x="802" y="1005"></point>
      <point x="989" y="1005" type="curve" smooth="yes"></point>
      <point x="1043" y="1005"></point>
      <point x="1144" y="985"></point>
      <point x="1183" y="971" type="curve"></point>
      <point x="1135" y="1051" type="line"></point>
      <point x="1133" y="1031"></point>
      <point x="1087" y="756"></point>
      <point x="1084" y="736" type="curve" smooth="yes"></point>
      <point x="1052" y="536"></point>
      <point x="1004" y="380"></point>
    </contour>
  </outline>
</glyph>
<glyph name="A" format="1">
  <advance width="1327"></advance>
  <unicode hex="0041"></unicode>
  <outline>
    <contour>
      <point x="10" y="0" type="line"></point>
      <point x="249" y="0" type="line"></point>
      <point x="408" y="479" type="line"></point>
      <point x="323" y="413" type="line"></point>
      <point x="972" y="413" type="line"></point>
      <point x="885" y="475" type="line"></point>
      <point x="1058" y="0" type="line"></point>
      <point x="1298" y="0" type="line"></point>
      <point x="797" y="1456" type="line"></point>
      <point x="506" y="1456" type="line"></point>
    </contour>
    <contour>
      <point x="418" y="512" type="line"></point>
      <point x="677" y="1322" type="line"></point>
      <point x="629" y="1322" type="line"></point>
      <point x="874" y="513" type="line"></point>
      <point x="922" y="587" type="line"></point>
      <point x="373" y="587" type="line"></point>
    </contour>
  </outline>
</glyph>
<glyph name="B" format="1">
  <advance width="1297"/>
  <unicode hex="0042"/>
  <outline>
    <contour>
      <point x="143" y="15" type="line"/>
      <point x="974" y="-47"/>
      <point x="1210" y="68"/>
      <point x="1210" y="430" type="curve" smooth="yes"/>
      <point x="1210" y="653"/>
      <point x="1060" y="767"/>
      <point x="828" y="801" type="curve"/>
      <point x="828" y="743" type="line"/>
      <point x="1079" y="797"/>
      <point x="1165" y="918"/>
      <point x="1165" y="1085" type="curve" smooth="yes"/>
      <point x="1165" y="1412"/>
      <point x="924" y="1505"/>
      <point x="143" y="1436" type="curve"/>
    </contour>
    <contour>
      <point x="324" y="195" type="curve"/>
      <point x="383" y="134" type="line"/>
      <point x="383" y="745" type="line"/>
      <point x="324" y="679" type="line"/>
      <point x="626" y="679" type="line" smooth="yes"/>
      <point x="862" y="679"/>
      <point x="972" y="621"/>
      <point x="972" y="440" type="curve" smooth="yes"/>
      <point x="972" y="242"/>
      <point x="862" y="155"/>
    </contour>
    <contour>
      <point x="323" y="849" type="line"/>
      <point x="383" y="796" type="line"/>
      <point x="383" y="1322" type="line"/>
      <point x="324" y="1258" type="line"/>
      <point x="780" y="1295"/>
      <point x="924" y="1254"/>
      <point x="924" y="1051" type="curve" smooth="yes"/>
      <point x="924" y="889"/>
      <point x="825" y="849"/>
      <point x="649" y="849" type="curve" smooth="yes"/>
    </contour>
  </outline>
</glyph>
<glyph name="C" format="1">
  <advance width="1323"></advance>
  <unicode hex="0043"></unicode>
  <outline>
    <contour>
      <point x="1117" y="382.0" type="line"></point>
      <point x="1061" y="272.0"></point>
      <point x="933" y="186"></point>
      <point x="745" y="186" type="curve" smooth="yes"></point>
      <point x="533" y="186"></point>
      <point x="324" y="340.0"></point>
      <point x="324" y="727.0" type="curve" smooth="yes"></point>
      <point x="324" y="1110.0"></point>
      <point x="502" y="1281"></point>
      <point x="749" y="1281" type="curve" smooth="yes"></point>
      <point x="943" y="1281"></point>
      <point x="1062" y="1172.0"></point>
      <point x="1108" y="1065.0" type="curve"></point>
      <point x="1285" y="1179.0" type="line"></point>
      <point x="1217" y="1320.0"></point>
      <point x="1037" y="1480"></point>
      <point x="747" y="1480" type="curve" smooth="yes"></point>
      <point x="347" y="1480"></point>
      <point x="70" y="1203.0"></point>
      <point x="70" y="733.0" type="curve" smooth="yes"></point>
      <point x="70" y="232.0"></point>
      <point x="398" y="-18"></point>
      <point x="733" y="-18" type="curve" smooth="yes"></point>
      <point x="993" y="-18"></point>
      <point x="1186" y="82.0"></point>
      <point x="1288" y="266.0" type="curve"></point>
    </contour>
  </outline>
</glyph>
<glyph name="D" format="1">
  <advance width="1486"/>
  <unicode hex="0044"/>
  <outline>
    <contour>
      <point x="388.0" y="108.0" type="line"/>
      <point x="388.0" y="1340.0" type="line"/>
      <point x="322" y="1276" type="line"/>
      <point x="953" y="1324"/>
      <point x="1134" y="1127"/>
      <point x="1134" y="745" type="curve" smooth="yes"/>
      <point x="1134" y="396"/>
      <point x="939" y="129"/>
      <point x="322" y="180" type="curve"/>
    </contour>
    <contour>
      <point x="148" y="0" type="line"/>
      <point x="1044" y="-64"/>
      <point x="1386" y="224"/>
      <point x="1386" y="750" type="curve" smooth="yes"/>
      <point x="1386" y="1315"/>
      <point x="1018" y="1520"/>
      <point x="148" y="1460" type="curve"/>
    </contour>
  </outline>
</glyph>
<glyph name="E" format="1">
  <advance width="1213"/>
  <unicode hex="0045"/>
  <outline>
    <contour>
      <point x="143" y="0" type="line"/>
      <point x="1116" y="0" type="line"/>
      <point x="1124" y="195" type="line"/>
      <point x="313" y="195" type="line"/>
      <point x="383" y="125" type="line"/>
      <point x="383" y="726" type="line"/>
      <point x="312" y="654" type="line"/>
      <point x="1054" y="654" type="line"/>
      <point x="1054" y="845" type="line"/>
      <point x="313" y="845" type="line"/>
      <point x="383" y="774" type="line"/>
      <point x="383" y="1336" type="line"/>
      <point x="313" y="1266" type="line"/>
      <point x="1094" y="1266" type="line"/>
      <point x="1107" y="1456" type="line"/>
      <point x="143" y="1456" type="line"/>
    </contour>
  </outline>
</glyph>
<glyph name="F" format="1">
  <advance width="1143"/>
  <unicode hex="0046"/>
  <outline>
    <contour>
      <point x="144" y="0" type="line"/>
      <point x="384" y="0" type="line"/>
      <point x="384" y="713" type="line"/>
      <point x="297" y="629" type="line"/>
      <point x="1035" y="629" type="line"/>
      <point x="1035" y="817" type="line"/>
      <point x="292" y="817" type="line"/>
      <point x="384" y="747" type="line"/>
      <point x="384" y="1342" type="line"/>
      <point x="288" y="1259" type="line"/>
      <point x="1081" y="1259" type="line"/>
      <point x="1095" y="1456" type="line"/>
      <point x="144" y="1456" type="line"/>
    </contour>
  </outline>
</glyph>
<glyph name="G" format="1">
  <advance width="1374"></advance>
  <unicode hex="0047"></unicode>
  <outline>
    <contour>
      <point x="759" y="-18.0" type="curve" smooth="yes"></point>
      <point x="957" y="-18.0"></point>
      <point x="1113" y="20"></point>
      <point x="1267" y="85" type="curve"></point>
      <point x="1267" y="798" type="line"></point>
      <point x="730" y="798.0" type="line"></point>
      <point x="721" y="615" type="line"></point>
      <point x="1120" y="593" type="line"></point>
      <point x="1047" y="662" type="line"></point>
      <point x="1047" y="148" type="line"></point>
      <point x="1129" y="247" type="line"></point>
      <point x="1066" y="215"></point>
      <point x="944" y="186"></point>
      <point x="779" y="186" type="curve" smooth="yes"></point>
      <point x="455" y="186"></point>
      <point x="341" y="380.0"></point>
      <point x="341" y="721.0" type="curve" smooth="yes"></point>
      <point x="341" y="1059.0"></point>
      <point x="492" y="1252"></point>
      <point x="791" y="1252" type="curve" smooth="yes"></point>
      <point x="963" y="1252"></point>
      <point x="1076" y="1165"></point>
      <point x="1134" y="1092" type="curve"></point>
      <point x="1277" y="1236" type="line"></point>
      <point x="1195" y="1358"></point>
      <point x="1028" y="1456"></point>
      <point x="777" y="1456" type="curve" smooth="yes"></point>
      <point x="357" y="1456"></point>
      <point x="87" y="1186.0"></point>
      <point x="87" y="718.0" type="curve" smooth="yes"></point>
      <point x="87" y="265.0"></point>
      <point x="318" y="-18.0"></point>
    </contour>
  </outline>
</glyph>
<glyph name="H" format="1">
  <advance width="1422"/>
  <unicode hex="0048"/>
  <outline>
    <contour>
      <point x="143" y="0" type="line"/>
      <point x="383" y="0" type="line"/>
      <point x="383" y="722" type="line"/>
      <point x="308" y="651" type="line"/>
      <point x="1118" y="651" type="line"/>
      <point x="1039" y="722" type="line"/>
      <point x="1039" y="0" type="line"/>
      <point x="1279" y="0" type="line"/>
      <point x="1279" y="1456" type="line"/>
      <point x="1039" y="1456" type="line"/>
      <point x="1039" y="772" type="line"/>
      <point x="1112" y="844" type="line"/>
      <point x="307" y="844" type="line"/>
      <point x="383" y="772" type="line"/>
      <point x="383" y="1456" type="line"/>
      <point x="143" y="1456" type="line"/>
    </contour>
  </outline>
</glyph>
<glyph name="I" format="1">
  <advance width="995"></advance>
  <unicode hex="0049"></unicode>
  <outline>
    <contour>
      <point x="163" y="1456" type="line"></point>
      <point x="163" y="1303" type="line"></point>
      <point x="438" y="1303" type="line"></point>
      <point x="369" y="1360" type="line"></point>
      <point x="369" y="90" type="line"></point>
      <point x="439" y="153" type="line"></point>
      <point x="163" y="153" type="line"></point>
      <point x="163" y="0" type="line"></point>
      <point x="811" y="0" type="line"></point>
      <point x="811" y="153" type="line"></point>
      <point x="532" y="153" type="line"></point>
      <point x="609" y="90" type="line"></point>
      <point x="609" y="1362" type="line"></point>
      <point x="533" y="1303" type="line"></point>
      <point x="811" y="1303" type="line"></point>
      <point x="811" y="1456" type="line"></point>
    </contour>
  </outline>
</glyph>
<glyph name="J" format="1">
  <advance width="772"></advance>
  <unicode hex="004A"></unicode>
  <outline>
    <contour>
      <point x="120" y="-209" type="line" smooth="yes"></point>
      <point x="459" y="-175"></point>
      <point x="617" y="-88"></point>
      <point x="617" y="263" type="curve" smooth="yes"></point>
      <point x="617" y="1456" type="line"></point>
      <point x="377" y="1456" type="line"></point>
      <point x="377" y="268" type="line" smooth="yes"></point>
      <point x="377" y="65"></point>
      <point x="303" y="15"></point>
      <point x="111" y="-11" type="curve" smooth="yes"></point>
      <point x="26" y="-23" type="line"></point>
      <point x="48" y="-216" type="line"></point>
    </contour>
  </outline>
</glyph>
<glyph name="K" format="1">
  <advance width="1268"></advance>
  <unicode hex="004B"></unicode>
  <outline>
    <contour>
      <point x="114" y="0" type="line"></point>
      <point x="354" y="0" type="line"></point>
      <point x="354" y="613" type="line"></point>
      <point x="301" y="482" type="line"></point>
      <point x="534" y="731" type="line"></point>
      <point x="434" y="731" type="line"></point>
      <point x="990" y="0" type="line"></point>
      <point x="1278" y="0" type="line"></point>
      <point x="613" y="872" type="line"></point>
      <point x="613" y="740" type="line"></point>
      <point x="1245" y="1456" type="line"></point>
      <point x="961" y="1456" type="line"></point>
      <point x="293" y="700" type="line"></point>
      <point x="354" y="690" type="line"></point>
      <point x="354" y="1456" type="line"></point>
      <point x="114" y="1456" type="line"></point>
    </contour>
  </outline>
</glyph>
<glyph name="L" format="1">
  <advance width="1057"/>
  <unicode hex="004C"/>
  <outline>
    <contour>
      <point x="150" y="0" type="line"/>
      <point x="1030" y="0" type="line"/>
      <point x="1042" y="180" type="line"/>
      <point x="303" y="180" type="line"/>
      <point x="390" y="91" type="line"/>
      <point x="390" y="1460" type="line"/>
      <point x="150" y="1460" type="line"/>
    </contour>
  </outline>
</glyph>
<glyph name="M" format="1">
  <advance width="1815"/>
  <unicode hex="004D"/>
  <outline>
    <contour>
      <point x="146" y="0" type="line"/>
      <point x="372" y="0" type="line"/>
      <point x="384" y="690" type="line"/>
      <point x="385" y="1201" type="line"/>
      <point x="340" y="1201" type="line"/>
      <point x="818" y="202" type="line"/>
      <point x="993" y="202" type="line"/>
      <point x="1479" y="1201" type="line"/>
      <point x="1430" y="1201" type="line"/>
      <point x="1430" y="693" type="line"/>
      <point x="1443" y="0" type="line"/>
      <point x="1669" y="0" type="line"/>
      <point x="1633" y="1460" type="line"/>
      <point x="1378" y="1460" type="line"/>
      <point x="865" y="391" type="line"/>
      <point x="952" y="391" type="line"/>
      <point x="444" y="1460" type="line"/>
      <point x="182" y="1460" type="line"/>
    </contour>
  </outline>
</glyph>
<glyph name="N" format="1">
  <advance width="1422"/>
  <unicode hex="004E"/>
  <outline>
    <contour>
      <point x="143" y="0" type="line"/>
      <point x="371" y="0" type="line"/>
      <point x="371" y="560" type="line"/>
      <point x="353" y="1213" type="line"/>
      <point x="299" y="1206" type="line"/>
      <point x="1007" y="0" type="line"/>
      <point x="1279" y="0" type="line"/>
      <point x="1279" y="1456" type="line"/>
      <point x="1051" y="1456" type="line"/>
      <point x="1051" y="788" type="line"/>
      <point x="1064" y="235" type="line"/>
      <point x="1114" y="236" type="line"/>
      <point x="405" y="1456" type="line"/>
      <point x="143" y="1456" type="line"/>
    </contour>
  </outline>
</glyph>
<glyph name="O" format="1">
  <advance width="1469"/>
  <unicode hex="004F"/>
  <outline>
    <contour>
      <point x="736" y="186" type="curve" smooth="yes"/>
      <point x="444" y="186"/>
      <point x="327" y="398"/>
      <point x="327" y="724" type="curve" smooth="yes"/>
      <point x="327" y="1061"/>
      <point x="450" y="1276"/>
      <point x="737" y="1276" type="curve" smooth="yes"/>
      <point x="1025" y="1276"/>
      <point x="1142" y="1060"/>
      <point x="1142" y="724" type="curve" smooth="yes"/>
      <point x="1142" y="398"/>
      <point x="1028" y="186"/>
    </contour>
    <contour>
      <point x="737" y="-18" type="curve" smooth="yes"/>
      <point x="1171" y="-18"/>
      <point x="1396" y="260"/>
      <point x="1396" y="724" type="curve" smooth="yes"/>
      <point x="1396" y="1199"/>
      <point x="1164" y="1480"/>
      <point x="737" y="1480" type="curve" smooth="yes"/>
      <point x="306" y="1480"/>
      <point x="73" y="1201"/>
      <point x="73" y="725" type="curve" smooth="yes"/>
      <point x="73" y="258"/>
      <point x="301" y="-18"/>
    </contour>
  </outline>
</glyph>
<glyph name="P" format="1">
  <advance width="1296"/>
  <unicode hex="0050"/>
  <outline>
    <contour>
      <point x="143" y="0" type="line"/>
      <point x="383" y="0" type="line"/>
      <point x="383" y="656" type="line"/>
      <point x="316" y="583" type="line"/>
      <point x="1100" y="554"/>
      <point x="1225" y="752"/>
      <point x="1225" y="1039" type="curve" smooth="yes"/>
      <point x="1225" y="1399"/>
      <point x="991" y="1504"/>
      <point x="143" y="1438" type="curve"/>
    </contour>
    <contour>
      <point x="323" y="1257" type="line"/>
      <point x="893" y="1307"/>
      <point x="976" y="1210"/>
      <point x="982" y="1033" type="curve" smooth="yes"/>
      <point x="988" y="844"/>
      <point x="894" y="737"/>
      <point x="318" y="770" type="curve"/>
      <point x="383" y="704" type="line"/>
      <point x="383" y="1322" type="line"/>
    </contour>
  </outline>
</glyph>
<glyph name="Q" format="1">
  <advance width="1565"></advance>
  <unicode hex="0051"></unicode>
  <outline>
    <contour>
      <point x="1130" y="-497" type="line"></point>
      <point x="1292" y="-392" type="line"></point>
      <point x="1014" y="4" type="line"></point>
      <point x="1295" y="86"></point>
      <point x="1440" y="328"></point>
      <point x="1440" y="685" type="curve" smooth="yes"></point>
      <point x="1440" y="1141"></point>
      <point x="1208" y="1411"></point>
      <point x="781" y="1411" type="curve" smooth="yes"></point>
      <point x="350" y="1411"></point>
      <point x="117" y="1143"></point>
      <point x="117" y="686" type="curve" smooth="yes"></point>
      <point x="117" y="238"></point>
      <point x="345" y="-27"></point>
      <point x="781" y="-27" type="curve" smooth="yes"></point>
      <point x="803" y="-27" type="line"></point>
    </contour>
    <contour>
      <point x="780" y="169" type="curve" smooth="yes"></point>
      <point x="488" y="169"></point>
      <point x="371" y="373"></point>
      <point x="371" y="685" type="curve" smooth="yes"></point>
      <point x="371" y="1009"></point>
      <point x="494" y="1215"></point>
      <point x="781" y="1215" type="curve" smooth="yes"></point>
      <point x="1069" y="1215"></point>
      <point x="1186" y="1008"></point>
      <point x="1186" y="685" type="curve" smooth="yes"></point>
      <point x="1186" y="373"></point>
      <point x="1072" y="169"></point>
    </contour>
  </outline>
</glyph>
<glyph name="R" format="1">
  <advance width="1365"></advance>
  <unicode hex="0052"></unicode>
  <outline>
    <contour>
      <point x="172" y="0" type="line"></point>
      <point x="412" y="0" type="line"></point>
      <point x="412" y="666" type="line"></point>
      <point x="347" y="617" type="line"></point>
      <point x="425" y="612"></point>
      <point x="610" y="591"></point>
      <point x="821" y="617" type="curve"></point>
      <point x="707" y="675" type="line"></point>
      <point x="1022" y="0" type="line"></point>
      <point x="1291" y="0" type="line"></point>
      <point x="921" y="735" type="line"></point>
      <point x="913" y="636" type="line"></point>
      <point x="1085" y="685"></point>
      <point x="1235" y="765"></point>
      <point x="1235" y="1006" type="curve" smooth="yes"></point>
      <point x="1235" y="1276"></point>
      <point x="1119" y="1398"></point>
      <point x="604" y="1398" type="curve" smooth="yes"></point>
      <point x="478" y="1398"></point>
      <point x="349" y="1391"></point>
      <point x="172" y="1377" type="curve"></point>
    </contour>
    <contour>
      <point x="353" y="1203" type="line"></point>
      <point x="469" y="1211"></point>
      <point x="545" y="1215"></point>
      <point x="625" y="1215" type="curve" smooth="yes"></point>
      <point x="931" y="1215"></point>
      <point x="983" y="1152"></point>
      <point x="983" y="1002" type="curve" smooth="yes"></point>
      <point x="983" y="782"></point>
      <point x="829" y="746"></point>
      <point x="345" y="786" type="curve"></point>
      <point x="412" y="724" type="line"></point>
      <point x="412" y="1263" type="line"></point>
    </contour>
  </outline>
</glyph>
<glyph name="S" format="1">
  <advance width="1203.0870603"/>
  <unicode hex="0053"/>
  <outline>
    <contour>
      <point x="1102" y="390" type="curve" smooth="yes"/>
      <point x="1105" y="757"/>
      <point x="858" y="759"/>
      <point x="492" y="921" type="curve" smooth="yes"/>
      <point x="396" y="964"/>
      <point x="362" y="1003"/>
      <point x="362" y="1097" type="curve" smooth="yes"/>
      <point x="362" y="1346"/>
      <point x="788" y="1306"/>
      <point x="979" y="1196" type="curve"/>
      <point x="1058.0" y="1379.0" type="line"/>
      <point x="915.0" y="1450.0"/>
      <point x="758.0" y="1480.0"/>
      <point x="614.0" y="1480.0" type="curve" smooth="yes"/>
      <point x="347.0" y="1480.0"/>
      <point x="126.0" y="1371.0"/>
      <point x="126.0" y="1079.0" type="curve" smooth="yes"/>
      <point x="126.0" y="748.0"/>
      <point x="352" y="731"/>
      <point x="666" y="595" type="curve" smooth="yes"/>
      <point x="817" y="530"/>
      <point x="861.0" y="495.0"/>
      <point x="861.0" y="384.0" type="curve" smooth="yes"/>
      <point x="861.0" y="108.0"/>
      <point x="438" y="147"/>
      <point x="185" y="303" type="curve"/>
      <point x="157.0" y="90.0" type="line"/>
      <point x="470.0" y="-96.0"/>
      <point x="1098" y="-83"/>
    </contour>
  </outline>
</glyph>
<glyph name="T" format="1">
  <advance width="1398"></advance>
  <unicode hex="0054"></unicode>
  <outline>
    <contour>
      <point x="741" y="0" type="line"></point>
      <point x="981" y="0" type="line"></point>
      <point x="981" y="1303" type="line"></point>
      <point x="919" y="1221" type="line"></point>
      <point x="1423" y="1221" type="line"></point>
      <point x="1423" y="1398" type="line"></point>
      <point x="300" y="1398" type="line"></point>
      <point x="300" y="1221" type="line"></point>
      <point x="802" y="1221" type="line"></point>
      <point x="741" y="1303" type="line"></point>
    </contour>
  </outline>
</glyph>
<glyph name="U" format="1">
  <advance width="1335"></advance>
  <unicode hex="0055"></unicode>
  <outline>
    <contour>
      <point x="659" y="-18" type="curve" smooth="yes"></point>
      <point x="1039" y="-18"></point>
      <point x="1226" y="199"></point>
      <point x="1226" y="535" type="curve" smooth="yes"></point>
      <point x="1226" y="1456" type="line"></point>
      <point x="986" y="1456" type="line"></point>
      <point x="986" y="551" type="line" smooth="yes"></point>
      <point x="986" y="309"></point>
      <point x="885" y="186"></point>
      <point x="659" y="186" type="curve" smooth="yes"></point>
      <point x="432" y="186"></point>
      <point x="336" y="308"></point>
      <point x="336" y="550" type="curve" smooth="yes"></point>
      <point x="336" y="1456" type="line"></point>
      <point x="96" y="1456" type="line"></point>
      <point x="96" y="537" type="line" smooth="yes"></point>
      <point x="96" y="195"></point>
      <point x="277" y="-18"></point>
    </contour>
  </outline>
</glyph>
<glyph name="V" format="1">
  <advance width="1359.71428571"/>
  <unicode hex="0056"/>
  <outline>
    <contour>
      <point x="537.857142857" y="0" type="line"/>
      <point x="805.857142857" y="0" type="line"/>
      <point x="1316.85714286" y="1460" type="line"/>
      <point x="1061.85714286" y="1460" type="line"/>
      <point x="780.857142857" y="589" type="line"/>
      <point x="646.857142857" y="173" type="line"/>
      <point x="714.857142857" y="173" type="line"/>
      <point x="585.857142857" y="587" type="line"/>
      <point x="302.857142857" y="1460" type="line"/>
      <point x="42.8571428571" y="1460" type="line"/>
    </contour>
  </outline>
</glyph>
<glyph name="W" format="1">
  <advance width="1753"></advance>
  <unicode hex="0057"></unicode>
  <outline>
    <contour>
      <point x="348" y="0.0" type="line"></point>
      <point x="586" y="0.0" type="line"></point>
      <point x="902" y="1177" type="line"></point>
      <point x="853" y="1177" type="line"></point>
      <point x="1140" y="0" type="line"></point>
      <point x="1387" y="0" type="line"></point>
      <point x="1785" y="1456" type="line"></point>
      <point x="1539" y="1456" type="line"></point>
      <point x="1238" y="261" type="line"></point>
      <point x="1276" y="261" type="line"></point>
      <point x="992" y="1438" type="line"></point>
      <point x="759" y="1438" type="line"></point>
      <point x="454" y="261.0" type="line"></point>
      <point x="495" y="261.0" type="line"></point>
      <point x="211" y="1456.0" type="line"></point>
      <point x="-27" y="1456.0" type="line"></point>
    </contour>
  </outline>
</glyph>
<glyph name="X" format="1">
  <advance width="1280"/>
  <unicode hex="0058"/>
  <outline>
    <contour>
      <point x="11" y="0" type="line"/>
      <point x="260" y="0" type="line"/>
      <point x="653" y="567" type="line"/>
      <point x="769" y="710" type="line"/>
      <point x="1248" y="1456" type="line"/>
      <point x="993" y="1456" type="line"/>
      <point x="645" y="911" type="line"/>
      <point x="518" y="765" type="line"/>
    </contour>
    <contour>
      <point x="996" y="0" type="line"/>
      <point x="1269" y="0" type="line"/>
      <point x="307" y="1456" type="line"/>
      <point x="35" y="1456" type="line"/>
    </contour>
  </outline>
</glyph>
<glyph name="Y" format="1">
  <advance width="1137"></advance>
  <unicode hex="0059"></unicode>
  <outline>
    <contour>
      <point x="434" y="0" type="line"></point>
      <point x="674" y="0" type="line"></point>
      <point x="674" y="651" type="line"></point>
      <point x="626" y="451" type="line"></point>
      <point x="1171" y="1456" type="line"></point>
      <point x="918" y="1456" type="line"></point>
      <point x="518" y="696" type="line"></point>
      <point x="588" y="696" type="line"></point>
      <point x="183" y="1456" type="line"></point>
      <point x="-65" y="1456" type="line"></point>
      <point x="489" y="438" type="line"></point>
      <point x="434" y="647" type="line"></point>
    </contour>
  </outline>
</glyph>
<glyph name="Z" format="1">
  <advance width="1265"></advance>
  <unicode hex="005A"></unicode>
  <outline>
    <contour>
      <point x="98" y="0" type="line"></point>
      <point x="1147" y="0" type="line"></point>
      <point x="1127" y="177" type="line"></point>
      <point x="283" y="177" type="line"></point>
      <point x="317" y="101" type="line"></point>
      <point x="1114" y="1234" type="line"></point>
      <point x="1111" y="1398" type="line"></point>
      <point x="118" y="1398" type="line"></point>
      <point x="126" y="1221" type="line"></point>
      <point x="923" y="1221" type="line"></point>
      <point x="882" y="1288" type="line"></point>
      <point x="98" y="158" type="line"></point>
    </contour>
  </outline>
</glyph>
<glyph name="bracketleft" format="1">
  <advance width="832"></advance>
  <unicode hex="005B"></unicode>
  <outline>
    <contour>
      <point x="227" y="-171" type="line"></point>
      <point x="227" y="1434" type="line"></point>
      <point x="682" y="1434" type="line"></point>
      <point x="682" y="1274" type="line"></point>
      <point x="441" y="1274" type="line"></point>
      <point x="441" y="-11" type="line"></point>
      <point x="682" y="-11" type="line"></point>
      <point x="682" y="-171" type="line"></point>
    </contour>
  </outline>
</glyph>
<glyph name="backslash" format="1">
  <advance width="827"></advance>
  <unicode hex="005C"></unicode>
  <outline>
    <contour>
      <point x="558" y="0" type="line"></point>
      <point x="50" y="1492" type="line"></point>
      <point x="248" y="1492" type="line"></point>
      <point x="753" y="0" type="line"></point>
    </contour>
  </outline>
</glyph>
<glyph name="bracketright" format="1">
  <advance width="758"/>
  <unicode hex="005D"/>
  <outline>
    <contour>
      <point x="563" y="1480" type="line"/>
      <point x="563" y="-252" type="line"/>
      <point x="108" y="-252" type="line"/>
      <point x="108" y="-86" type="line"/>
      <point x="349" y="-86" type="line"/>
      <point x="349" y="1314" type="line"/>
      <point x="108" y="1314" type="line"/>
      <point x="108" y="1480" type="line"/>
    </contour>
  </outline>
</glyph>
<glyph name="asciicircum" format="1">
  <advance width="1098"></advance>
  <unicode hex="005E"></unicode>
  <outline>
    <contour>
      <point x="33" y="535" type="line"></point>
      <point x="476" y="1432" type="line"></point>
      <point x="593" y="1432" type="line"></point>
      <point x="1062" y="535" type="line"></point>
      <point x="878" y="535" type="line"></point>
      <point x="536" y="1202" type="line"></point>
      <point x="216" y="535" type="line"></point>
    </contour>
  </outline>
</glyph>
<glyph name="underscore" format="1">
  <advance width="1157"></advance>
  <unicode hex="005F"></unicode>
  <outline>
    <contour>
      <point x="249" y="-221" type="line"></point>
      <point x="1200" y="-221" type="line"></point>
      <point x="1200" y="-59" type="line"></point>
      <point x="249" y="-59" type="line"></point>
    </contour>
  </outline>
</glyph>
<glyph name="grave" format="1">
  <advance width="937"></advance>
  <unicode hex="0060"></unicode>
  <outline>
    <contour>
      <point x="608" y="1058" type="line"></point>
      <point x="749" y="1058" type="line"></point>
      <point x="564" y="1469" type="line"></point>
      <point x="299" y="1469" type="line"></point>
    </contour>
    <contour>
      <point x="248" y="1058.0" type="move" name="_top"></point>
    </contour>
  </outline>
</glyph>
<glyph name="a" format="1">
  <advance width="1137"></advance>
  <unicode hex="0061"></unicode>
  <outline>
    <contour>
      <point x="806" y="337" type="line"></point>
      <point x="762" y="244"></point>
      <point x="642" y="145"></point>
      <point x="462" y="145" type="curve" smooth="yes"></point>
      <point x="358" y="145"></point>
      <point x="303" y="206"></point>
      <point x="303" y="313" type="curve" smooth="yes"></point>
      <point x="303" y="433"></point>
      <point x="393" y="490"></point>
      <point x="583" y="490" type="curve" smooth="yes"></point>
      <point x="631" y="490"></point>
      <point x="748" y="486"></point>
      <point x="796" y="485" type="curve"></point>
      <point x="768" y="521" type="line"></point>
      <point x="768" y="253" type="line"></point>
    </contour>
    <contour>
      <point x="769" y="586.0" type="line"></point>
      <point x="807" y="615.0" type="line"></point>
      <point x="750" y="620.0"></point>
      <point x="646" y="628"></point>
      <point x="533" y="628" type="curve" smooth="yes"></point>
      <point x="252" y="628"></point>
      <point x="96" y="523.0"></point>
      <point x="96" y="299.0" type="curve" smooth="yes"></point>
      <point x="96" y="87.0"></point>
      <point x="245" y="-18.0"></point>
      <point x="427" y="-18.0" type="curve" smooth="yes"></point>
      <point x="643" y="-18.0"></point>
      <point x="730" y="62.0"></point>
      <point x="815" y="213.0" type="curve"></point>
      <point x="784" y="213.0" type="line"></point>
      <point x="826" y="0.0" type="line"></point>
      <point x="988" y="0.0" type="line"></point>
      <point x="988" y="677.0" type="line" smooth="yes"></point>
      <point x="988" y="990.0"></point>
      <point x="787" y="1101"></point>
      <point x="561" y="1101" type="curve" smooth="yes"></point>
      <point x="348" y="1101"></point>
      <point x="196" y="1022"></point>
      <point x="138" y="871" type="curve"></point>
      <point x="293" y="790" type="line"></point>
      <point x="337" y="884"></point>
      <point x="419" y="927"></point>
      <point x="553" y="927" type="curve" smooth="yes"></point>
      <point x="687" y="927"></point>
      <point x="769" y="859.0"></point>
      <point x="769" y="697.0" type="curve" smooth="yes"></point>
    </contour>
  </outline>
</glyph>
<glyph name="b" format="1">
  <advance width="1158"></advance>
  <unicode hex="0062"></unicode>
  <outline>
    <contour>
      <point x="595" y="156" type="curve" smooth="yes"></point>
      <point x="434" y="156"></point>
      <point x="337" y="279"></point>
      <point x="337" y="558" type="curve"></point>
      <point x="338" y="807"></point>
      <point x="429" y="927"></point>
      <point x="601" y="927" type="curve" smooth="yes"></point>
      <point x="767" y="927"></point>
      <point x="844" y="799"></point>
      <point x="844" y="545" type="curve" smooth="yes"></point>
      <point x="844" y="289"></point>
      <point x="760" y="156"></point>
    </contour>
    <contour>
      <point x="640" y="-18" type="curve" smooth="yes"></point>
      <point x="917" y="-18"></point>
      <point x="1070" y="209"></point>
      <point x="1070" y="546" type="curve" smooth="yes"></point>
      <point x="1070" y="873"></point>
      <point x="927" y="1101"></point>
      <point x="645" y="1101" type="curve" smooth="yes"></point>
      <point x="485" y="1101"></point>
      <point x="367" y="1016"></point>
      <point x="306" y="861" type="curve"></point>
      <point x="338" y="848" type="line"></point>
      <point x="342" y="1128" type="line"></point>
      <point x="342" y="1560" type="line"></point>
      <point x="120" y="1540" type="line"></point>
      <point x="120" y="0" type="line"></point>
      <point x="307" y="0" type="line"></point>
      <point x="333" y="245" type="line"></point>
      <point x="289" y="230" type="line"></point>
      <point x="345" y="84"></point>
      <point x="468" y="-18"></point>
    </contour>
  </outline>
</glyph>
<glyph name="c" format="1">
  <advance width="1023"></advance>
  <unicode hex="0063"></unicode>
  <outline>
    <contour>
      <point x="598" y="-18" type="curve" smooth="yes"></point>
      <point x="844" y="-18"></point>
      <point x="950" y="111"></point>
      <point x="1009" y="216" type="curve"></point>
      <point x="875" y="311" type="line"></point>
      <point x="830" y="232"></point>
      <point x="745" y="156"></point>
      <point x="615" y="156" type="curve" smooth="yes"></point>
      <point x="420" y="156"></point>
      <point x="309" y="299.0"></point>
      <point x="309" y="541.0" type="curve" smooth="yes"></point>
      <point x="309" y="790.0"></point>
      <point x="427" y="927"></point>
      <point x="610" y="927" type="curve" smooth="yes"></point>
      <point x="759" y="927"></point>
      <point x="823" y="850"></point>
      <point x="865" y="787" type="curve"></point>
      <point x="999" y="892" type="line"></point>
      <point x="941" y="990"></point>
      <point x="818" y="1101"></point>
      <point x="603" y="1101" type="curve" smooth="yes"></point>
      <point x="314" y="1101"></point>
      <point x="83" y="895.0"></point>
      <point x="83" y="543.0" type="curve" smooth="yes"></point>
      <point x="83" y="194.0"></point>
      <point x="293" y="-18"></point>
    </contour>
  </outline>
</glyph>
<glyph name="d" format="1">
  <advance width="1193.0"/>
  <unicode hex="0064"/>
  <outline>
    <contour>
      <point x="534" y="-18" type="curve" smooth="yes"/>
      <point x="749" y="-18"/>
      <point x="850" y="102"/>
      <point x="898" y="267" type="curve"/>
      <point x="847" y="267" type="line"/>
      <point x="880" y="0" type="line"/>
      <point x="1061" y="0" type="line"/>
      <point x="1061" y="1480" type="line"/>
      <point x="837" y="1460" type="line"/>
      <point x="837" y="1110" type="line"/>
      <point x="848" y="862" type="line"/>
      <point x="885" y="878" type="line"/>
      <point x="824" y="994"/>
      <point x="720" y="1076"/>
      <point x="533" y="1076" type="curve" smooth="yes"/>
      <point x="256" y="1076"/>
      <point x="80" y="858"/>
      <point x="80" y="537" type="curve" smooth="yes"/>
      <point x="80" y="199"/>
      <point x="251" y="-18"/>
    </contour>
    <contour>
      <point x="577" y="152" type="curve" smooth="yes"/>
      <point x="403" y="152"/>
      <point x="306" y="274"/>
      <point x="306" y="533" type="curve" smooth="yes"/>
      <point x="306" y="798"/>
      <point x="424" y="906"/>
      <point x="588" y="906" type="curve" smooth="yes"/>
      <point x="751" y="906"/>
      <point x="846" y="796"/>
      <point x="846" y="518" type="curve"/>
      <point x="845" y="275"/>
      <point x="755" y="152"/>
    </contour>
  </outline>
</glyph>
<glyph name="e" format="1">
  <advance width="1103"></advance>
  <unicode hex="0065"></unicode>
  <outline>
    <contour>
      <point x="627" y="-18" type="curve" smooth="yes"></point>
      <point x="786" y="-16"></point>
      <point x="934" y="59"></point>
      <point x="990" y="138" type="curve"></point>
      <point x="895" y="265" type="line"></point>
      <point x="849" y="216"></point>
      <point x="759" y="157"></point>
      <point x="637" y="156" type="curve" smooth="yes"></point>
      <point x="474" y="155"></point>
      <point x="308" y="238"></point>
      <point x="308" y="519" type="curve"></point>
      <point x="254" y="473" type="line"></point>
      <point x="997" y="473" type="line"></point>
      <point x="997" y="473"></point>
      <point x="1005" y="527"></point>
      <point x="1005" y="586" type="curve" smooth="yes"></point>
      <point x="1005" y="886"></point>
      <point x="847" y="1095"></point>
      <point x="580" y="1101" type="curve" smooth="yes"></point>
      <point x="300" y="1107"></point>
      <point x="82" y="884"></point>
      <point x="82" y="540" type="curve" smooth="yes"></point>
      <point x="82" y="172"></point>
      <point x="324" y="-22"></point>
    </contour>
    <contour>
      <point x="810" y="584" type="curve"></point>
      <point x="855" y="627" type="line"></point>
      <point x="255" y="627" type="line"></point>
      <point x="312" y="584" type="line"></point>
      <point x="313" y="817"></point>
      <point x="436" y="933"></point>
      <point x="584" y="933" type="curve" smooth="yes"></point>
      <point x="733" y="933"></point>
      <point x="810" y="809"></point>
    </contour>
  </outline>
</glyph>
<glyph name="f" format="1">
  <advance width="758"></advance>
  <unicode hex="0066"></unicode>
  <outline>
    <contour>
      <point x="237" y="0" type="line"></point>
      <point x="461" y="0" type="line"></point>
      <point x="461" y="980" type="line"></point>
      <point x="419" y="933" type="line"></point>
      <point x="717" y="933" type="line"></point>
      <point x="717" y="1082" type="line"></point>
      <point x="412" y="1082" type="line"></point>
      <point x="461" y="1035" type="line"></point>
      <point x="461" y="1145" type="line" smooth="yes"></point>
      <point x="461" y="1309"></point>
      <point x="517" y="1332"></point>
      <point x="609" y="1332" type="curve" smooth="yes"></point>
      <point x="652" y="1332"></point>
      <point x="714" y="1323"></point>
      <point x="736" y="1319" type="curve"></point>
      <point x="756" y="1483" type="line"></point>
      <point x="707" y="1493"></point>
      <point x="635" y="1501"></point>
      <point x="569" y="1501" type="curve" smooth="yes"></point>
      <point x="373" y="1501"></point>
      <point x="237" y="1421"></point>
      <point x="237" y="1127" type="curve" smooth="yes"></point>
      <point x="237" y="1034" type="line"></point>
      <point x="282" y="1085" type="line"></point>
      <point x="73" y="1063" type="line"></point>
      <point x="68" y="933" type="line"></point>
      <point x="276" y="933" type="line"></point>
      <point x="237" y="984" type="line"></point>
    </contour>
  </outline>
</glyph>
<glyph name="g" format="1">
  <advance width="1132"></advance>
  <unicode hex="0067"></unicode>
  <outline>
    <contour>
      <point x="823" y="45" type="curve" smooth="yes"></point>
      <point x="823" y="-117"></point>
      <point x="778" y="-262"></point>
      <point x="533" y="-266" type="curve" smooth="yes"></point>
      <point x="416" y="-268"></point>
      <point x="297" y="-246"></point>
      <point x="200" y="-212" type="curve"></point>
      <point x="180" y="-384" type="line"></point>
      <point x="308" y="-419"></point>
      <point x="411" y="-441"></point>
      <point x="546" y="-440" type="curve" smooth="yes"></point>
      <point x="900" y="-437"></point>
      <point x="1023" y="-214"></point>
      <point x="1023" y="65" type="curve" smooth="yes"></point>
      <point x="1023" y="1040" type="line"></point>
      <point x="817" y="1040" type="line"></point>
      <point x="800" y="818" type="line"></point>
      <point x="835" y="825" type="line"></point>
      <point x="788" y="979"></point>
      <point x="675" y="1060"></point>
      <point x="510" y="1060" type="curve" smooth="yes"></point>
      <point x="235" y="1060"></point>
      <point x="75" y="854"></point>
      <point x="75" y="527" type="curve" smooth="yes"></point>
      <point x="75" y="225"></point>
      <point x="224" y="20"></point>
      <point x="509" y="20" type="curve" smooth="yes"></point>
      <point x="687" y="20"></point>
      <point x="817" y="128"></point>
      <point x="854" y="321" type="curve"></point>
      <point x="809" y="321" type="line"></point>
      <point x="809" y="290"></point>
      <point x="823" y="162"></point>
    </contour>
    <contour>
      <point x="548" y="196" type="curve" smooth="yes"></point>
      <point x="356" y="196"></point>
      <point x="301" y="345"></point>
      <point x="301" y="534" type="curve" smooth="yes"></point>
      <point x="301" y="729"></point>
      <point x="353" y="884"></point>
      <point x="550" y="884" type="curve" smooth="yes"></point>
      <point x="741" y="884"></point>
      <point x="809" y="771"></point>
      <point x="809" y="533" type="curve"></point>
      <point x="809" y="298"></point>
      <point x="737" y="196"></point>
    </contour>
  </outline>
</glyph>
<glyph name="h" format="1">
  <advance width="1132"></advance>
  <unicode hex="0068"></unicode>
  <outline>
    <contour>
      <point x="112" y="0" type="line"></point>
      <point x="336" y="0" type="line"></point>
      <point x="336" y="531" type="line" smooth="yes"></point>
      <point x="336" y="694"></point>
      <point x="406" y="884"></point>
      <point x="605" y="884" type="curve" smooth="yes"></point>
      <point x="742" y="884"></point>
      <point x="798" y="797"></point>
      <point x="798" y="620" type="curve" smooth="yes"></point>
      <point x="798" y="0" type="line"></point>
      <point x="1022" y="0" type="line"></point>
      <point x="1022" y="636" type="line" smooth="yes"></point>
      <point x="1022" y="913"></point>
      <point x="883" y="1067"></point>
      <point x="648" y="1059" type="curve" smooth="yes"></point>
      <point x="478" y="1053"></point>
      <point x="343" y="948"></point>
      <point x="291" y="757" type="curve"></point>
      <point x="327" y="757" type="line"></point>
      <point x="336" y="1114" type="line"></point>
      <point x="336" y="1498" type="line"></point>
      <point x="112" y="1478" type="line"></point>
    </contour>
  </outline>
</glyph>
<glyph name="i" format="1">
  <advance width="579"/>
  <unicode hex="0069"/>
  <outline>
    <contour>
      <point x="298" y="1514" type="curve" smooth="yes"/>
      <point x="387" y="1514"/>
      <point x="428" y="1470"/>
      <point x="428" y="1381" type="curve" smooth="yes"/>
      <point x="428" y="1292"/>
      <point x="387" y="1248"/>
      <point x="298" y="1248" type="curve" smooth="yes"/>
      <point x="210" y="1248"/>
      <point x="168" y="1292"/>
      <point x="168" y="1381" type="curve" smooth="yes"/>
      <point x="168" y="1470"/>
      <point x="210" y="1514"/>
    </contour>
    <contour>
      <point x="188" y="0" type="line"/>
      <point x="408" y="0" type="line"/>
      <point x="408" y="1082" type="line"/>
      <point x="188" y="1082" type="line"/>
    </contour>
  </outline>
</glyph>
<glyph name="j" format="1">
  <advance width="597.0"/>
  <unicode hex="006A"/>
  <outline>
    <contour>
      <point x="332.0" y="1481" type="curve" smooth="yes"/>
      <point x="421.0" y="1481"/>
      <point x="482.0" y="1438"/>
      <point x="482.0" y="1351" type="curve" smooth="yes"/>
      <point x="482.0" y="1264"/>
      <point x="421.0" y="1221"/>
      <point x="332.0" y="1221" type="curve" smooth="yes"/>
      <point x="244.0" y="1221"/>
      <point x="181.0" y="1264"/>
      <point x="181.0" y="1351" type="curve" smooth="yes"/>
      <point x="181.0" y="1438"/>
      <point x="244.0" y="1481"/>
    </contour>
    <contour>
      <point x="22.0" y="-380" type="line"/>
      <point x="82.9999999995" y="-375" type="line" smooth="yes"/>
      <point x="371.0" y="-351"/>
      <point x="438.0" y="-279"/>
      <point x="438.0" y="21" type="curve" smooth="yes"/>
      <point x="438.0" y="1058" type="line"/>
      <point x="218.0" y="1058" type="line"/>
      <point x="218.0" y="10" type="line" smooth="yes"/>
      <point x="218.0" y="-155"/>
      <point x="183.0" y="-187"/>
      <point x="39.9999999995" y="-201" type="curve" smooth="yes"/>
      <point x="0.0" y="-205" type="line"/>
    </contour>
  </outline>
</glyph>
<glyph name="k" format="1">
  <advance width="1048"></advance>
  <unicode hex="006B"></unicode>
  <outline>
    <contour>
      <point x="127" y="0" type="line"></point>
      <point x="349" y="0" type="line"></point>
      <point x="349" y="443" type="line"></point>
      <point x="295" y="327" type="line"></point>
      <point x="491" y="522" type="line"></point>
      <point x="419" y="522" type="line"></point>
      <point x="819" y="0" type="line"></point>
      <point x="1082" y="0" type="line"></point>
      <point x="577" y="641" type="line"></point>
      <point x="567" y="537" type="line"></point>
      <point x="1060" y="1082" type="line"></point>
      <point x="785" y="1082" type="line"></point>
      <point x="301" y="538" type="line"></point>
      <point x="342" y="538" type="line"></point>
      <point x="349" y="800" type="line"></point>
      <point x="349" y="1560" type="line"></point>
      <point x="127" y="1539" type="line"></point>
    </contour>
  </outline>
</glyph>
<glyph name="l" format="1">
  <advance width="615"/>
  <unicode hex="006C"/>
  <outline>
    <contour>
      <point x="515" y="-6" type="curve" smooth="yes"/>
      <point x="570" y="-6" type="line"/>
      <point x="583" y="163" type="line"/>
      <point x="513" y="171" type="line" smooth="yes"/>
      <point x="402" y="184"/>
      <point x="366" y="212"/>
      <point x="366" y="316" type="curve" smooth="yes"/>
      <point x="366" y="1560" type="line"/>
      <point x="144" y="1539" type="line"/>
      <point x="144" y="334" type="line" smooth="yes"/>
      <point x="144" y="57"/>
      <point x="253" y="-6"/>
    </contour>
  </outline>
</glyph>
<glyph name="m" format="1">
  <advance width="1736"></advance>
  <unicode hex="006D"></unicode>
  <outline>
    <contour>
      <point x="115" y="0" type="line"></point>
      <point x="336" y="0" type="line"></point>
      <point x="336" y="572" type="line" smooth="yes"></point>
      <point x="336" y="782"></point>
      <point x="434" y="927"></point>
      <point x="586" y="927" type="curve" smooth="yes"></point>
      <point x="719" y="927"></point>
      <point x="767" y="828"></point>
      <point x="767" y="619" type="curve" smooth="yes"></point>
      <point x="767" y="0" type="line"></point>
      <point x="988" y="0" type="line"></point>
      <point x="988" y="573" type="line" smooth="yes"></point>
      <point x="988" y="782"></point>
      <point x="1110" y="927"></point>
      <point x="1249" y="927" type="curve" smooth="yes"></point>
      <point x="1397" y="927"></point>
      <point x="1419" y="797"></point>
      <point x="1419" y="617" type="curve" smooth="yes"></point>
      <point x="1419" y="0" type="line"></point>
      <point x="1640" y="0" type="line"></point>
      <point x="1640" y="692" type="line" smooth="yes"></point>
      <point x="1640" y="958"></point>
      <point x="1526" y="1101"></point>
      <point x="1295" y="1101" type="curve" smooth="yes"></point>
      <point x="1142" y="1101"></point>
      <point x="985" y="1020"></point>
      <point x="918" y="816" type="curve"></point>
      <point x="954" y="816" type="line"></point>
      <point x="920" y="992"></point>
      <point x="813" y="1101"></point>
      <point x="640" y="1101" type="curve" smooth="yes"></point>
      <point x="462" y="1101"></point>
      <point x="336" y="987"></point>
      <point x="290" y="804" type="curve"></point>
      <point x="332" y="804" type="line"></point>
      <point x="297" y="1082" type="line"></point>
      <point x="115" y="1082" type="line"></point>
    </contour>
  </outline>
</glyph>
<glyph name="n" format="1">
  <advance width="1185"></advance>
  <unicode hex="006E"></unicode>
  <outline>
    <contour>
      <point x="144" y="0" type="line"></point>
      <point x="368" y="0" type="line"></point>
      <point x="368" y="572" type="line" smooth="yes"></point>
      <point x="368" y="762"></point>
      <point x="454" y="927"></point>
      <point x="636" y="927" type="curve" smooth="yes"></point>
      <point x="783" y="927"></point>
      <point x="829" y="826"></point>
      <point x="829" y="643" type="curve" smooth="yes"></point>
      <point x="829" y="0" type="line"></point>
      <point x="1053" y="0" type="line"></point>
      <point x="1053" y="661" type="line" smooth="yes"></point>
      <point x="1053" y="943"></point>
      <point x="916" y="1101"></point>
      <point x="689" y="1101" type="curve" smooth="yes"></point>
      <point x="461" y="1101"></point>
      <point x="376" y="964"></point>
      <point x="325" y="804" type="curve"></point>
      <point x="361" y="804" type="line"></point>
      <point x="329" y="1082" type="line"></point>
      <point x="144" y="1082" type="line"></point>
    </contour>
  </outline>
</glyph>
<glyph name="o" format="1">
  <advance width="1180"/>
  <unicode hex="006F"/>
  <outline>
    <contour>
      <point x="590" y="152" type="curve"/>
      <point x="404" y="152"/>
      <point x="306" y="294"/>
      <point x="306" y="530" type="curve" smooth="yes"/>
      <point x="306" y="766"/>
      <point x="404" y="906"/>
      <point x="590" y="906" type="curve"/>
      <point x="776" y="906"/>
      <point x="874" y="766"/>
      <point x="874" y="530" type="curve" smooth="yes"/>
      <point x="874" y="294"/>
      <point x="776" y="152"/>
    </contour>
    <contour>
      <point x="590" y="1076" type="curve"/>
      <point x="279" y="1076"/>
      <point x="80" y="862"/>
      <point x="80" y="530" type="curve" smooth="yes"/>
      <point x="80" y="199"/>
      <point x="280" y="-18"/>
      <point x="590" y="-18" type="curve"/>
      <point x="900" y="-18"/>
      <point x="1100" y="199"/>
      <point x="1100" y="530" type="curve" smooth="yes"/>
      <point x="1100" y="862"/>
      <point x="901" y="1076"/>
    </contour>
  </outline>
</glyph>
<glyph name="p" format="1">
  <advance width="1157"></advance>
  <unicode hex="0070"></unicode>
  <outline>
    <contour>
      <point x="122" y="-449" type="line"></point>
      <point x="346" y="-449" type="line"></point>
      <point x="346" y="-36" type="line"></point>
      <point x="337" y="310" type="line"></point>
      <point x="287" y="310" type="line"></point>
      <point x="317" y="135"></point>
      <point x="431" y="-18"></point>
      <point x="628" y="-18" type="curve" smooth="yes"></point>
      <point x="908" y="-18"></point>
      <point x="1070" y="217"></point>
      <point x="1070" y="543" type="curve" smooth="yes"></point>
      <point x="1070" y="865"></point>
      <point x="926" y="1101"></point>
      <point x="653" y="1101" type="curve" smooth="yes"></point>
      <point x="500" y="1101"></point>
      <point x="359" y="1033"></point>
      <point x="301" y="805" type="curve"></point>
      <point x="341" y="805" type="line"></point>
      <point x="307" y="1082" type="line"></point>
      <point x="122" y="1082" type="line"></point>
    </contour>
    <contour>
      <point x="595" y="156" type="curve" smooth="yes"></point>
      <point x="423" y="156"></point>
      <point x="343" y="287"></point>
      <point x="343" y="562" type="curve"></point>
      <point x="344" y="805"></point>
      <point x="423" y="927"></point>
      <point x="601" y="927" type="curve" smooth="yes"></point>
      <point x="768" y="927"></point>
      <point x="844" y="796"></point>
      <point x="844" y="545" type="curve" smooth="yes"></point>
      <point x="844" y="290"></point>
      <point x="760" y="156"></point>
    </contour>
  </outline>
</glyph>
<glyph name="q" format="1">
  <advance width="1158"/>
  <unicode hex="0071"/>
  <outline>
    <contour>
      <point x="853" y="889" type="curve"/>
      <point x="853" y="944"/>
      <point x="793" y="1092"/>
      <point x="566" y="1101" type="curve" smooth="yes"/>
      <point x="300" y="1111"/>
      <point x="84" y="932"/>
      <point x="84" y="554" type="curve" smooth="yes"/>
      <point x="84" y="149"/>
      <point x="299" y="-35"/>
      <point x="576" y="-18" type="curve" smooth="yes"/>
      <point x="821" y="-3"/>
      <point x="879" y="175"/>
      <point x="881" y="243" type="curve"/>
      <point x="810" y="243" type="line"/>
      <point x="810" y="-468" type="line" smooth="yes"/>
      <point x="1034" y="-468" type="line"/>
      <point x="1034" y="1082" type="line"/>
      <point x="829" y="1082" type="line"/>
      <point x="815" y="887" type="line"/>
      <point x="815" y="887"/>
      <point x="853" y="889"/>
    </contour>
    <contour>
      <point x="572" y="156" type="curve" smooth="yes"/>
      <point x="402" y="155"/>
      <point x="310" y="293"/>
      <point x="310" y="554" type="curve" smooth="yes"/>
      <point x="310" y="825"/>
      <point x="420" y="927"/>
      <point x="574" y="927" type="curve" smooth="yes"/>
      <point x="688" y="927"/>
      <point x="774" y="876"/>
      <point x="817" y="807" type="curve"/>
      <point x="817" y="280" type="line"/>
      <point x="791" y="241"/>
      <point x="735" y="157"/>
    </contour>
  </outline>
</glyph>
<glyph name="r" format="1">
  <advance width="741"/>
  <unicode hex="0072"/>
  <outline>
    <contour>
      <point x="130" y="0" type="line"/>
      <point x="354" y="0" type="line"/>
      <point x="354" y="598" type="line" smooth="yes"/>
      <point x="354" y="816"/>
      <point x="432" y="914"/>
      <point x="613" y="914" type="curve" smooth="yes"/>
      <point x="637" y="914"/>
      <point x="664" y="913"/>
      <point x="694" y="906" type="curve"/>
      <point x="699" y="1083" type="line"/>
      <point x="674" y="1088"/>
      <point x="649" y="1089"/>
      <point x="623" y="1089" type="curve" smooth="yes"/>
      <point x="495" y="1089"/>
      <point x="393" y="1047"/>
      <point x="311" y="804" type="curve"/>
      <point x="349" y="804" type="line"/>
      <point x="315" y="1082" type="line"/>
      <point x="130" y="1082" type="line"/>
    </contour>
  </outline>
</glyph>
<glyph name="s" format="1">
  <advance width="844.073952482"/>
  <unicode hex="0073"/>
  <outline>
    <contour>
      <point x="427.008728154" y="-18" type="curve" smooth="yes"/>
      <point x="626.008728154" y="-18"/>
      <point x="793.004364022" y="80"/>
      <point x="791.004364022" y="297" type="curve" smooth="yes"/>
      <point x="790.004364022" y="413"/>
      <point x="780.004364022" y="501"/>
      <point x="436.004364022" y="649" type="curve" smooth="yes"/>
      <point x="310.004364022" y="703"/>
      <point x="280.004364022" y="736"/>
      <point x="283.004364022" y="800" type="curve" smooth="yes"/>
      <point x="287.004364022" y="884"/>
      <point x="349.004364022" y="906"/>
      <point x="445.004364022" y="906" type="curve" smooth="yes"/>
      <point x="525.004364022" y="906"/>
      <point x="617.008728154" y="878"/>
      <point x="704.008728154" y="818" type="curve"/>
      <point x="764.008728154" y="989" type="line"/>
      <point x="666.008728154" y="1046"/>
      <point x="547.008728154" y="1076"/>
      <point x="437.008728154" y="1076" type="curve" smooth="yes"/>
      <point x="243.008728154" y="1076"/>
      <point x="72.0043640216" y="998"/>
      <point x="73.0043640216" y="791" type="curve" smooth="yes"/>
      <point x="74.0043640216" y="610"/>
      <point x="121.004364022" y="575"/>
      <point x="431.004364022" y="439" type="curve" smooth="yes"/>
      <point x="578.004364022" y="375"/>
      <point x="582.004364022" y="335"/>
      <point x="582.004364022" y="288" type="curve" smooth="yes"/>
      <point x="582.004364022" y="203"/>
      <point x="535.008728154" y="152"/>
      <point x="422.008728154" y="152" type="curve" smooth="yes"/>
      <point x="347.008728154" y="152"/>
      <point x="247.008728154" y="179"/>
      <point x="136.008728154" y="232" type="curve"/>
      <point x="87.0087281539" y="62" type="line"/>
      <point x="189.008728154" y="11"/>
      <point x="319.008728154" y="-18"/>
    </contour>
  </outline>
</glyph>
<glyph name="t" format="1">
  <advance width="732"></advance>
  <unicode hex="0074"></unicode>
  <outline>
    <contour>
      <point x="571" y="-5" type="curve" smooth="yes"></point>
      <point x="679" y="-5" type="line"></point>
      <point x="688" y="155" type="line"></point>
      <point x="642" y="159" type="line" smooth="yes"></point>
      <point x="438" y="176"></point>
      <point x="428" y="170"></point>
      <point x="428" y="355" type="curve" smooth="yes"></point>
      <point x="428" y="931" type="line"></point>
      <point x="389" y="884" type="line"></point>
      <point x="666" y="884" type="line"></point>
      <point x="666" y="1040" type="line"></point>
      <point x="389" y="1040" type="line"></point>
      <point x="428" y="990" type="line"></point>
      <point x="428" y="1342" type="line"></point>
      <point x="237" y="1328" type="line"></point>
      <point x="213" y="997" type="line"></point>
      <point x="269" y="1043" type="line"></point>
      <point x="46" y="1028" type="line"></point>
      <point x="40" y="884" type="line"></point>
      <point x="243" y="884" type="line"></point>
      <point x="204" y="932" type="line"></point>
      <point x="204" y="361" type="line" smooth="yes"></point>
      <point x="204" y="100"></point>
      <point x="274" y="-5"></point>
    </contour>
  </outline>
</glyph>
<glyph name="u" format="1">
  <advance width="1185"></advance>
  <unicode hex="0075"></unicode>
  <outline>
    <contour>
      <point x="1049" y="1082" type="line"></point>
      <point x="825" y="1082" type="line"></point>
      <point x="825" y="502" type="line" smooth="yes"></point>
      <point x="825" y="289"></point>
      <point x="776" y="156"></point>
      <point x="575" y="156" type="curve" smooth="yes"></point>
      <point x="421" y="156"></point>
      <point x="362" y="250"></point>
      <point x="362" y="418" type="curve" smooth="yes"></point>
      <point x="362" y="1082" type="line"></point>
      <point x="138" y="1082" type="line"></point>
      <point x="138" y="409" type="line" smooth="yes"></point>
      <point x="138" y="122"></point>
      <point x="280" y="-18"></point>
      <point x="521" y="-18" type="curve" smooth="yes"></point>
      <point x="711" y="-18"></point>
      <point x="831" y="63"></point>
      <point x="887" y="273" type="curve"></point>
      <point x="835" y="273" type="line"></point>
      <point x="870" y="0" type="line"></point>
      <point x="1049" y="0" type="line"></point>
    </contour>
  </outline>
</glyph>
<glyph name="v" format="1">
  <advance width="1133.84615385"/>
  <unicode hex="0076"/>
  <outline>
    <contour>
      <point x="465.923076923" y="0" type="line"/>
      <point x="679.923076923" y="0" type="line"/>
      <point x="1086.92307692" y="1058" type="line"/>
      <point x="860.923076923" y="1058" type="line"/>
      <point x="650.923076923" y="475" type="line"/>
      <point x="555.923076923" y="167" type="line"/>
      <point x="599.923076923" y="167" type="line"/>
      <point x="495.923076923" y="475" type="line"/>
      <point x="280.923076923" y="1058" type="line"/>
      <point x="46.9230769231" y="1058" type="line"/>
    </contour>
  </outline>
</glyph>
<glyph name="w" format="1">
  <advance width="1489"></advance>
  <unicode hex="0077"></unicode>
  <outline>
    <contour>
      <point x="282" y="0" type="line"></point>
      <point x="484" y="0" type="line"></point>
      <point x="758" y="920" type="line"></point>
      <point x="715" y="920" type="line"></point>
      <point x="973" y="0" type="line"></point>
      <point x="1173" y="0" type="line"></point>
      <point x="1457" y="1082" type="line"></point>
      <point x="1267" y="1082" type="line"></point>
      <point x="1063" y="195" type="line"></point>
      <point x="1099" y="195" type="line"></point>
      <point x="851" y="1082" type="line"></point>
      <point x="630" y="1082" type="line"></point>
      <point x="373" y="195" type="line"></point>
      <point x="408" y="195" type="line"></point>
      <point x="211" y="1082" type="line"></point>
      <point x="6" y="1082" type="line"></point>
    </contour>
  </outline>
</glyph>
<glyph name="x" format="1">
  <advance width="1048"></advance>
  <unicode hex="0078"></unicode>
  <outline>
    <contour>
      <point x="762" y="0" type="line"></point>
      <point x="1011" y="0" type="line"></point>
      <point x="305" y="1082" type="line"></point>
      <point x="58" y="1082" type="line"></point>
    </contour>
    <contour>
      <point x="633" y="502" type="line"></point>
      <point x="1000" y="1082" type="line"></point>
      <point x="762" y="1082" type="line"></point>
      <point x="522" y="663" type="line"></point>
      <point x="417" y="592" type="line"></point>
      <point x="38" y="0" type="line"></point>
      <point x="274" y="0" type="line"></point>
      <point x="530" y="434" type="line"></point>
    </contour>
  </outline>
</glyph>
<glyph name="y" format="1">
  <advance width="1031"/>
  <unicode hex="0079"/>
  <outline>
    <contour>
      <point x="473" y="-453" type="line"/>
      <point x="1041" y="1082" type="line"/>
      <point x="820" y="1082" type="line"/>
      <point x="530" y="245" type="line"/>
      <point x="576" y="245" type="line"/>
      <point x="249" y="1082" type="line"/>
      <point x="24" y="1082" type="line"/>
      <point x="471" y="-30" type="line"/>
      <point x="471" y="114" type="line"/>
      <point x="277" y="-404" type="line"/>
    </contour>
  </outline>
</glyph>
<glyph name="z" format="1">
  <advance width="995"></advance>
  <unicode hex="007A"></unicode>
  <outline>
    <contour>
      <point x="112" y="0" type="line"></point>
      <point x="926" y="0" type="line"></point>
      <point x="926" y="170" type="line"></point>
      <point x="307" y="170" type="line"></point>
      <point x="323" y="100" type="line"></point>
      <point x="889" y="925" type="line"></point>
      <point x="889" y="1082" type="line"></point>
      <point x="134" y="1082" type="line"></point>
      <point x="134" y="919" type="line"></point>
      <point x="712" y="919" type="line"></point>
      <point x="687" y="981" type="line"></point>
      <point x="112" y="143" type="line"></point>
    </contour>
  </outline>
</glyph>
<glyph name="braceleft" format="1">
  <advance width="853"/>
  <unicode hex="007B"/>
  <outline>
    <contour>
      <point x="752" y="-269" type="line"/>
      <point x="492" y="-269"/>
      <point x="371" y="-180"/>
      <point x="371" y="53" type="curve" smooth="yes"/>
      <point x="371" y="291" type="line" smooth="yes"/>
      <point x="371" y="453"/>
      <point x="341" y="534"/>
      <point x="163" y="535" type="curve"/>
      <point x="163" y="724" type="line"/>
      <point x="344" y="725"/>
      <point x="371" y="804"/>
      <point x="371" y="966" type="curve" smooth="yes"/>
      <point x="371" y="1233" type="line" smooth="yes"/>
      <point x="371" y="1454"/>
      <point x="504" y="1538"/>
      <point x="752" y="1538" type="curve"/>
      <point x="752" y="1358" type="line"/>
      <point x="613" y="1356"/>
      <point x="581" y="1311"/>
      <point x="581" y="1164" type="curve" smooth="yes"/>
      <point x="581" y="898" type="line"/>
      <point x="580" y="756"/>
      <point x="529" y="680"/>
      <point x="401" y="627" type="curve"/>
      <point x="523" y="592"/>
      <point x="581" y="513"/>
      <point x="581" y="368" type="curve" smooth="yes"/>
      <point x="581" y="101" type="line" smooth="yes"/>
      <point x="581" y="-44"/>
      <point x="611" y="-90"/>
      <point x="752" y="-92" type="curve"/>
    </contour>
  </outline>
</glyph>
<glyph name="bar" format="1">
  <advance width="663"></advance>
  <unicode hex="007C"></unicode>
  <outline>
    <contour>
      <point x="233" y="-317" type="line"></point>
      <point x="233" y="1520" type="line"></point>
      <point x="410" y="1520" type="line"></point>
      <point x="410" y="-317" type="line"></point>
    </contour>
  </outline>
</glyph>
<glyph name="braceright" format="1">
  <advance width="853"></advance>
  <unicode hex="007D"></unicode>
  <outline>
    <contour>
      <point x="87" y="-269" type="curve"></point>
      <point x="87" y="-92" type="line"></point>
      <point x="226" y="-90"></point>
      <point x="257" y="-47"></point>
      <point x="257" y="101" type="curve" smooth="yes"></point>
      <point x="257" y="368" type="line" smooth="yes"></point>
      <point x="257" y="499"></point>
      <point x="310" y="580"></point>
      <point x="438" y="632" type="curve"></point>
      <point x="312" y="676"></point>
      <point x="258" y="773"></point>
      <point x="257" y="899" type="curve"></point>
      <point x="257" y="1164" type="line" smooth="yes"></point>
      <point x="257" y="1309"></point>
      <point x="228" y="1357"></point>
      <point x="87" y="1359" type="curve"></point>
      <point x="87" y="1538" type="line"></point>
      <point x="346" y="1538"></point>
      <point x="466" y="1449"></point>
      <point x="466" y="1212" type="curve" smooth="yes"></point>
      <point x="466" y="967" type="line" smooth="yes"></point>
      <point x="466" y="805"></point>
      <point x="494" y="728"></point>
      <point x="676" y="726" type="curve"></point>
      <point x="676" y="537" type="line"></point>
      <point x="500" y="537"></point>
      <point x="466" y="456"></point>
      <point x="466" y="293" type="curve" smooth="yes"></point>
      <point x="466" y="31" type="line" smooth="yes"></point>
      <point x="466" y="-188"></point>
      <point x="339" y="-269"></point>
    </contour>
  </outline>
</glyph>
<glyph name="asciitilde" format="1">
  <advance width="1202"></advance>
  <unicode hex="007E"></unicode>
  <outline>
    <contour>
      <point x="159" y="480" type="curve"></point>
      <point x="90" y="609" type="line"></point>
      <point x="138" y="717"></point>
      <point x="224" y="806"></point>
      <point x="364" y="806" type="curve" smooth="yes"></point>
      <point x="446" y="806"></point>
      <point x="520" y="780"></point>
      <point x="610" y="740" type="curve" smooth="yes"></point>
      <point x="700" y="700"></point>
      <point x="772" y="669"></point>
      <point x="828" y="669" type="curve" smooth="yes"></point>
      <point x="905" y="669"></point>
      <point x="976" y="723"></point>
      <point x="1038" y="812" type="curve"></point>
      <point x="1107" y="691" type="line"></point>
      <point x="1057" y="580"></point>
      <point x="953" y="492"></point>
      <point x="818" y="492" type="curve" smooth="yes"></point>
      <point x="735" y="492"></point>
      <point x="663" y="521"></point>
      <point x="576" y="561" type="curve"></point>
      <point x="491" y="601"></point>
      <point x="427" y="630"></point>
      <point x="357" y="630" type="curve" smooth="yes"></point>
      <point x="271" y="630"></point>
      <point x="201" y="560"></point>
    </contour>
  </outline>
</glyph>
<glyph name="cent" format="1">
  <advance width="623"></advance>
  <unicode hex="00A2"></unicode>
  <outline>
    <contour>
      <point x="250" y="-278" type="line"></point>
      <point x="336" y="-278" type="line"></point>
      <point x="374" y="60" type="line"></point>
      <point x="217" y="60" type="line"></point>
    </contour>
    <contour>
      <point x="351" y="1376" type="line"></point>
      <point x="265" y="1376" type="line"></point>
      <point x="227" y="1037" type="line"></point>
      <point x="384" y="1037" type="line"></point>
    </contour>
    <component base="c"></component>
  </outline>
</glyph>
<glyph name="sterling" format="1">
  <advance width="1137"/>
  <unicode hex="00A3"/>
  <outline>
    <contour>
      <point x="65" y="10" type="line"/>
      <point x="54" y="183" type="line"/>
      <point x="229" y="203" type="line"/>
      <point x="229" y="674" type="line"/>
      <point x="49" y="674" type="line"/>
      <point x="49" y="840" type="line"/>
      <point x="229" y="840" type="line"/>
      <point x="229" y="945" type="line" smooth="yes"/>
      <point x="229" y="1255"/>
      <point x="321" y="1508"/>
      <point x="655" y="1508" type="curve" smooth="yes"/>
      <point x="803" y="1508"/>
      <point x="925" y="1454"/>
      <point x="1018" y="1373" type="curve"/>
      <point x="924" y="1223" type="line"/>
      <point x="839" y="1286"/>
      <point x="759" y="1322"/>
      <point x="662" y="1322" type="curve" smooth="yes"/>
      <point x="497" y="1322"/>
      <point x="439" y="1206"/>
      <point x="439" y="1018" type="curve" smooth="yes"/>
      <point x="439" y="840" type="line"/>
      <point x="826" y="840" type="line"/>
      <point x="826" y="674" type="line"/>
      <point x="439" y="674" type="line"/>
      <point x="439" y="205" type="line"/>
      <point x="1034" y="205" type="line"/>
      <point x="1025" y="10" type="line"/>
    </contour>
  </outline>
</glyph>
<glyph name="currency" format="1">
  <advance width="1028"></advance>
  <unicode hex="00A4"></unicode>
  <outline>
    <contour>
      <point x="944" y="227" type="line"></point>
      <point x="1027" y="317" type="line"></point>
      <point x="850" y="492" type="line"></point>
      <point x="898" y="562"></point>
      <point x="923" y="643"></point>
      <point x="923" y="733" type="curve" smooth="yes"></point>
      <point x="923" y="821"></point>
      <point x="896" y="903"></point>
      <point x="849" y="974" type="curve"></point>
      <point x="1028" y="1150" type="line"></point>
      <point x="944" y="1240" type="line"></point>
      <point x="763" y="1066" type="line"></point>
      <point x="693" y="1123"></point>
      <point x="609" y="1154"></point>
      <point x="515" y="1154" type="curve" smooth="yes"></point>
      <point x="422" y="1154"></point>
      <point x="335" y="1121"></point>
      <point x="266" y="1067" type="curve"></point>
      <point x="89" y="1240" type="line"></point>
      <point x="0" y="1152" type="line"></point>
      <point x="181" y="974" type="line"></point>
      <point x="133" y="902"></point>
      <point x="107" y="821"></point>
      <point x="107" y="733" type="curve" smooth="yes"></point>
      <point x="107" y="644"></point>
      <point x="134" y="561"></point>
      <point x="181" y="492" type="curve"></point>
      <point x="1" y="316" type="line"></point>
      <point x="89" y="228" type="line"></point>
      <point x="265" y="400" type="line"></point>
      <point x="335" y="344"></point>
      <point x="420" y="314"></point>
      <point x="515" y="314" type="curve" smooth="yes"></point>
      <point x="609" y="314"></point>
      <point x="694" y="346"></point>
      <point x="763" y="401" type="curve"></point>
    </contour>
    <contour>
      <point x="515" y="443" type="curve" smooth="yes"></point>
      <point x="354" y="443"></point>
      <point x="237" y="573"></point>
      <point x="237" y="733" type="curve" smooth="yes"></point>
      <point x="237" y="892"></point>
      <point x="354" y="1025"></point>
      <point x="515" y="1025" type="curve" smooth="yes"></point>
      <point x="677" y="1025"></point>
      <point x="795" y="892"></point>
      <point x="795" y="733" type="curve" smooth="yes"></point>
      <point x="795" y="573"></point>
      <point x="679" y="443"></point>
    </contour>
  </outline>
</glyph>
<glyph name="yen" format="1">
  <advance width="1137"></advance>
  <unicode hex="00A5"></unicode>
  <outline>
    <contour>
      <point x="1009" y="255" type="line"></point>
      <point x="1009" y="406" type="line"></point>
      <point x="612" y="406" type="line"></point>
      <point x="612" y="555" type="line"></point>
      <point x="1009" y="555" type="line"></point>
      <point x="1009" y="699" type="line"></point>
      <point x="126" y="699" type="line"></point>
      <point x="126" y="555" type="line"></point>
      <point x="524" y="555" type="line"></point>
      <point x="524" y="406" type="line"></point>
      <point x="125" y="406" type="line"></point>
      <point x="125" y="255" type="line"></point>
    </contour>
    <component base="Y"></component>
  </outline>
</glyph>
<glyph name="brokenbar" format="1">
  <advance width="732"></advance>
  <unicode hex="00A6"></unicode>
  <outline>
    <contour>
      <point x="269" y="-296" type="line"></point>
      <point x="269" y="398" type="line"></point>
      <point x="446" y="398" type="line"></point>
      <point x="446" y="-296" type="line"></point>
    </contour>
    <contour>
      <point x="269" y="752" type="line"></point>
      <point x="269" y="1444" type="line"></point>
      <point x="446" y="1444" type="line"></point>
      <point x="446" y="752" type="line"></point>
    </contour>
  </outline>
</glyph>
<glyph name="section" format="1">
  <advance width="1065"></advance>
  <unicode hex="00A7"></unicode>
  <outline>
    <contour>
      <point x="687" y="435" type="line"></point>
      <point x="781" y="483"></point>
      <point x="893" y="564"></point>
      <point x="893" y="707" type="curve" smooth="yes"></point>
      <point x="893" y="846"></point>
      <point x="820" y="940"></point>
      <point x="622" y="1005" type="curve" smooth="yes"></point>
      <point x="533" y="1035" type="line" smooth="yes"></point>
      <point x="404" y="1078"></point>
      <point x="375" y="1109"></point>
      <point x="375" y="1172" type="curve" smooth="yes"></point>
      <point x="375" y="1244"></point>
      <point x="446" y="1284"></point>
      <point x="542" y="1284" type="curve" smooth="yes"></point>
      <point x="622" y="1284"></point>
      <point x="717" y="1258"></point>
      <point x="804" y="1198" type="curve"></point>
      <point x="864" y="1368" type="line"></point>
      <point x="766" y="1424"></point>
      <point x="647" y="1453"></point>
      <point x="537" y="1453" type="curve" smooth="yes"></point>
      <point x="343" y="1453"></point>
      <point x="173" y="1362"></point>
      <point x="173" y="1160" type="curve" smooth="yes"></point>
      <point x="173" y="1011"></point>
      <point x="235" y="926"></point>
      <point x="425" y="864" type="curve" smooth="yes"></point>
      <point x="531" y="828" type="line" smooth="yes"></point>
      <point x="668" y="783"></point>
      <point x="694" y="743"></point>
      <point x="694" y="687" type="curve" smooth="yes"></point>
      <point x="694" y="615"></point>
      <point x="651" y="566"></point>
      <point x="568" y="553" type="curve"></point>
    </contour>
    <contour>
      <point x="289" y="10"></point>
      <point x="419" y="-18"></point>
      <point x="527" y="-18" type="curve" smooth="yes"></point>
      <point x="726" y="-18"></point>
      <point x="893" y="74"></point>
      <point x="893" y="309" type="curve" smooth="yes"></point>
      <point x="893" y="447"></point>
      <point x="820" y="542"></point>
      <point x="622" y="607" type="curve" smooth="yes"></point>
      <point x="533" y="636" type="line" smooth="yes"></point>
      <point x="404" y="680"></point>
      <point x="375" y="710"></point>
      <point x="375" y="774" type="curve" smooth="yes"></point>
      <point x="375" y="834"></point>
      <point x="424" y="873"></point>
      <point x="497" y="883" type="curve"></point>
      <point x="399" y="1002" type="line"></point>
      <point x="257" y="943"></point>
      <point x="172" y="853"></point>
      <point x="172" y="731" type="curve" smooth="yes"></point>
      <point x="172" y="607"></point>
      <point x="249" y="523"></point>
      <point x="425" y="466" type="curve" smooth="yes"></point>
      <point x="531" y="430" type="line" smooth="yes"></point>
      <point x="668" y="385"></point>
      <point x="694" y="345"></point>
      <point x="694" y="289" type="curve" smooth="yes"></point>
      <point x="694" y="205"></point>
      <point x="635" y="152"></point>
      <point x="522" y="152" type="curve" smooth="yes"></point>
      <point x="436" y="152"></point>
      <point x="317" y="181"></point>
      <point x="187" y="251" type="curve"></point>
      <point x="187" y="60" type="line"></point>
    </contour>
  </outline>
</glyph>
<glyph name="dieresis" format="1">
  <advance width="1042"></advance>
  <unicode hex="00A8"></unicode>
  <outline>
    <contour>
      <point x="403" y="1192" type="curve" smooth="yes"></point>
      <point x="486" y="1192"></point>
      <point x="539" y="1258"></point>
      <point x="539" y="1331" type="curve" smooth="yes"></point>
      <point x="539" y="1405"></point>
      <point x="486" y="1472"></point>
      <point x="403" y="1472" type="curve" smooth="yes"></point>
      <point x="319" y="1472"></point>
      <point x="265" y="1405"></point>
      <point x="265" y="1331" type="curve" smooth="yes"></point>
      <point x="265" y="1257"></point>
      <point x="320" y="1192"></point>
    </contour>
    <contour>
      <point x="848" y="1192" type="curve" smooth="yes"></point>
      <point x="931" y="1192"></point>
      <point x="984" y="1258"></point>
      <point x="984" y="1331" type="curve" smooth="yes"></point>
      <point x="984" y="1405"></point>
      <point x="931" y="1472"></point>
      <point x="848" y="1472" type="curve" smooth="yes"></point>
      <point x="764" y="1472"></point>
      <point x="710" y="1405"></point>
      <point x="710" y="1331" type="curve" smooth="yes"></point>
      <point x="710" y="1257"></point>
      <point x="765" y="1192"></point>
    </contour>
  </outline>
</glyph>
<glyph name="copyright" format="1">
  <advance width="1647"></advance>
  <unicode hex="00A9"></unicode>
  <outline>
    <contour>
      <point x="730" y="253" type="curve" smooth="yes"></point>
      <point x="841" y="253"></point>
      <point x="943" y="283"></point>
      <point x="1026" y="338" type="curve"></point>
      <point x="980" y="444" type="line"></point>
      <point x="904" y="396"></point>
      <point x="816" y="375"></point>
      <point x="740" y="375" type="curve" smooth="yes"></point>
      <point x="544" y="375"></point>
      <point x="407" y="525"></point>
      <point x="407" y="760" type="curve" smooth="yes"></point>
      <point x="407" y="988"></point>
      <point x="543" y="1141"></point>
      <point x="734" y="1141" type="curve" smooth="yes"></point>
      <point x="807" y="1141"></point>
      <point x="900" y="1118"></point>
      <point x="972" y="1069" type="curve"></point>
      <point x="1024" y="1177" type="line"></point>
      <point x="939" y="1236"></point>
      <point x="837" y="1264"></point>
      <point x="726" y="1264" type="curve" smooth="yes"></point>
      <point x="460" y="1264"></point>
      <point x="261" y="1042"></point>
      <point x="261" y="757" type="curve" smooth="yes"></point>
      <point x="261" y="463"></point>
      <point x="467" y="253"></point>
    </contour>
    <contour>
      <point x="729" y="94" type="curve" smooth="yes"></point>
      <point x="376" y="94"></point>
      <point x="83" y="363"></point>
      <point x="83" y="764" type="curve" smooth="yes"></point>
      <point x="83" y="1163"></point>
      <point x="376" y="1428"></point>
      <point x="728" y="1428" type="curve" smooth="yes"></point>
      <point x="1084" y="1428"></point>
      <point x="1378" y="1162"></point>
      <point x="1378" y="763" type="curve" smooth="yes"></point>
      <point x="1378" y="363"></point>
      <point x="1085" y="94"></point>
    </contour>
    <contour>
      <point x="729" y="-12" type="curve" smooth="yes"></point>
      <point x="1131" y="-12"></point>
      <point x="1499" y="284"></point>
      <point x="1499" y="764" type="curve" smooth="yes"></point>
      <point x="1499" y="1242"></point>
      <point x="1130" y="1535"></point>
      <point x="728" y="1535" type="curve" smooth="yes"></point>
      <point x="329" y="1535"></point>
      <point x="-37" y="1243"></point>
      <point x="-37" y="764" type="curve" smooth="yes"></point>
      <point x="-37" y="284"></point>
      <point x="330" y="-12"></point>
    </contour>
  </outline>
</glyph>
<glyph name="guillemotleft" format="1">
  <advance width="1042"/>
  <unicode hex="00AB"/>
  <outline>
    <contour>
      <point x="770" y="138" type="line"/>
      <point x="943" y="138" type="line"/>
      <point x="681" y="564" type="line"/>
      <point x="948" y="988" type="line"/>
      <point x="772" y="988" type="line"/>
      <point x="468" y="561" type="line"/>
    </contour>
    <contour>
      <point x="376" y="138" type="line"/>
      <point x="549" y="138" type="line"/>
      <point x="287" y="564" type="line"/>
      <point x="555" y="988" type="line"/>
      <point x="379" y="988" type="line"/>
      <point x="74" y="561" type="line"/>
    </contour>
  </outline>
</glyph>
<glyph name="logicalnot" format="1">
  <advance width="1198"></advance>
  <unicode hex="00AC"></unicode>
  <outline>
    <contour>
      <point x="893" y="234" type="line"></point>
      <point x="1063" y="234" type="line"></point>
      <point x="1063" y="789" type="line"></point>
      <point x="82" y="789" type="line"></point>
      <point x="82" y="621" type="line"></point>
      <point x="893" y="621" type="line"></point>
    </contour>
  </outline>
</glyph>
<glyph name="uni00AD" format="1">
  <advance width="932"></advance>
  <unicode hex="00AD"></unicode>
  <outline>
    <contour>
      <point x="131" y="278" type="line"></point>
      <point x="790" y="278" type="line"></point>
      <point x="790" y="456" type="line"></point>
      <point x="131" y="456" type="line"></point>
    </contour>
  </outline>
</glyph>
<glyph name="registered" format="1">
  <advance width="1535"></advance>
  <unicode hex="00AE"></unicode>
  <outline>
    <contour>
      <point x="460" y="283" type="line"></point>
      <point x="603" y="283" type="line"></point>
      <point x="603" y="713" type="line"></point>
      <point x="774" y="713" type="line"></point>
      <point x="797" y="689"></point>
      <point x="993" y="283"></point>
      <point x="993" y="283" type="curve"></point>
      <point x="1152" y="283" type="line"></point>
      <point x="1152" y="283"></point>
      <point x="955" y="678"></point>
      <point x="914" y="733" type="curve"></point>
      <point x="1055" y="761"></point>
      <point x="1112" y="849"></point>
      <point x="1112" y="990" type="curve" smooth="yes"></point>
      <point x="1112" y="1175"></point>
      <point x="997" y="1250"></point>
      <point x="780" y="1250" type="curve" smooth="yes"></point>
      <point x="460" y="1250" type="line"></point>
    </contour>
    <contour>
      <point x="603" y="840" type="line"></point>
      <point x="603" y="1124" type="line"></point>
      <point x="749" y="1124" type="line" smooth="yes"></point>
      <point x="906" y="1124"></point>
      <point x="971" y="1111"></point>
      <point x="971" y="986" type="curve" smooth="yes"></point>
      <point x="971" y="870"></point>
      <point x="910" y="840"></point>
      <point x="770" y="840" type="curve" smooth="yes"></point>
    </contour>
    <contour>
      <point x="766" y="89" type="curve" smooth="yes"></point>
      <point x="414" y="89"></point>
      <point x="122" y="358"></point>
      <point x="122" y="759" type="curve" smooth="yes"></point>
      <point x="122" y="1158"></point>
      <point x="413" y="1428"></point>
      <point x="765" y="1428" type="curve" smooth="yes"></point>
      <point x="1120" y="1428"></point>
      <point x="1413" y="1157"></point>
      <point x="1413" y="758" type="curve" smooth="yes"></point>
      <point x="1413" y="358"></point>
      <point x="1120" y="89"></point>
    </contour>
    <contour>
      <point x="766" y="-17" type="curve" smooth="yes"></point>
      <point x="1167" y="-17"></point>
      <point x="1535" y="279"></point>
      <point x="1535" y="759" type="curve" smooth="yes"></point>
      <point x="1535" y="1237"></point>
      <point x="1166" y="1535"></point>
      <point x="765" y="1535" type="curve" smooth="yes"></point>
      <point x="366" y="1535"></point>
      <point x="0" y="1238"></point>
      <point x="0" y="759" type="curve" smooth="yes"></point>
      <point x="0" y="279"></point>
      <point x="367" y="-17"></point>
    </contour>
  </outline>
</glyph>
<glyph name="macron" format="1">
  <advance width="995"/>
  <unicode hex="00AF"/>
  <outline>
    <contour>
      <point x="265" y="1310" type="line"/>
      <point x="918" y="1310" type="line"/>
      <point x="918" y="1463" type="line"/>
      <point x="265" y="1463" type="line"/>
    </contour>
  </outline>
</glyph>
<glyph name="degree" format="1">
  <advance width="617"></advance>
  <unicode hex="00B0"></unicode>
  <outline>
    <contour>
      <point x="308" y="1022" type="curve" smooth="yes"></point>
      <point x="218" y="1022"></point>
      <point x="141" y="1089"></point>
      <point x="141" y="1198" type="curve" smooth="yes"></point>
      <point x="141" y="1304"></point>
      <point x="219" y="1370"></point>
      <point x="309" y="1370" type="curve" smooth="yes"></point>
      <point x="397" y="1370"></point>
      <point x="475" y="1304"></point>
      <point x="475" y="1198" type="curve" smooth="yes"></point>
      <point x="475" y="1089"></point>
      <point x="398" y="1022"></point>
    </contour>
    <contour>
      <point x="308" y="895" type="curve" smooth="yes"></point>
      <point x="493" y="895"></point>
      <point x="617" y="1036"></point>
      <point x="617" y="1199" type="curve" smooth="yes"></point>
      <point x="617" y="1366"></point>
      <point x="489" y="1495"></point>
      <point x="308" y="1495" type="curve" smooth="yes"></point>
      <point x="127" y="1495"></point>
      <point x="0" y="1366"></point>
      <point x="0" y="1199" type="curve" smooth="yes"></point>
      <point x="0" y="1032"></point>
      <point x="125" y="895"></point>
    </contour>
  </outline>
</glyph>
<glyph name="plusminus" format="1">
  <advance width="1185"></advance>
  <unicode hex="00B1"></unicode>
  <outline>
    <contour>
      <point x="496" y="243" type="line"></point>
      <point x="669" y="243" type="line"></point>
      <point x="669" y="625" type="line"></point>
      <point x="1034" y="625" type="line"></point>
      <point x="1034" y="802" type="line"></point>
      <point x="669" y="802" type="line"></point>
      <point x="669" y="1175" type="line"></point>
      <point x="496" y="1175" type="line"></point>
      <point x="496" y="802" type="line"></point>
      <point x="128" y="802" type="line"></point>
      <point x="128" y="625" type="line"></point>
      <point x="496" y="625" type="line"></point>
    </contour>
    <contour>
      <point x="119" y="0" type="line"></point>
      <point x="119" y="162" type="line"></point>
      <point x="1053" y="162" type="line"></point>
      <point x="1053" y="0" type="line"></point>
    </contour>
  </outline>
</glyph>
<glyph name="uni00B2" format="1">
  <advance width="573"></advance>
  <unicode hex="00B2"></unicode>
  <outline>
    <contour>
      <point x="15" y="600" type="line"></point>
      <point x="15" y="735" type="line"></point>
      <point x="88" y="811"></point>
      <point x="410" y="1068"></point>
      <point x="410" y="1200" type="curve" smooth="yes"></point>
      <point x="410" y="1286"></point>
      <point x="345" y="1331"></point>
      <point x="279" y="1331" type="curve" smooth="yes"></point>
      <point x="206" y="1331"></point>
      <point x="127" y="1298"></point>
      <point x="77" y="1229" type="curve"></point>
      <point x="0" y="1336" type="line"></point>
      <point x="58" y="1429"></point>
      <point x="169" y="1479"></point>
      <point x="290" y="1479" type="curve" smooth="yes"></point>
      <point x="434" y="1479"></point>
      <point x="573" y="1382"></point>
      <point x="573" y="1207" type="curve" smooth="yes"></point>
      <point x="573" y="1015"></point>
      <point x="430" y="903"></point>
      <point x="244" y="738" type="curve"></point>
      <point x="569" y="738" type="line"></point>
      <point x="556" y="600" type="line"></point>
    </contour>
  </outline>
</glyph>
<glyph name="uni00B2" format="1">
  <advance width="744"/>
  <unicode hex="00B2"/>
  <outline>
    <contour>
      <point x="95" y="600" type="line"/>
      <point x="95" y="732" type="line"/>
      <point x="168" y="806"/>
      <point x="490" y="1058"/>
      <point x="490" y="1187" type="curve" smooth="yes"/>
      <point x="490" y="1271"/>
      <point x="425" y="1315"/>
      <point x="359" y="1315" type="curve" smooth="yes"/>
      <point x="286" y="1315"/>
      <point x="207" y="1283"/>
      <point x="157" y="1215" type="curve"/>
      <point x="80" y="1320" type="line"/>
      <point x="138" y="1411"/>
      <point x="249" y="1460"/>
      <point x="370" y="1460" type="curve" smooth="yes"/>
      <point x="514" y="1460"/>
      <point x="653" y="1365"/>
      <point x="653" y="1194" type="curve" smooth="yes"/>
      <point x="653" y="1006"/>
      <point x="510" y="896"/>
      <point x="324" y="735" type="curve"/>
      <point x="649" y="735" type="line"/>
      <point x="636" y="600" type="line"/>
    </contour>
  </outline>
</glyph>
<glyph name="uni00B3" format="1">
  <advance width="799"></advance>
  <unicode hex="00B3"></unicode>
  <outline>
    <contour>
      <point x="380" y="583" type="curve" smooth="yes"></point>
      <point x="534" y="583"></point>
      <point x="665" y="675"></point>
      <point x="665" y="842" type="curve" smooth="yes"></point>
      <point x="665" y="934"></point>
      <point x="606" y="1009"></point>
      <point x="523" y="1042" type="curve"></point>
      <point x="609" y="1072"></point>
      <point x="645" y="1135"></point>
      <point x="646" y="1207" type="curve"></point>
      <point x="646" y="1368"></point>
      <point x="520" y="1440"></point>
      <point x="384" y="1440" type="curve" smooth="yes"></point>
      <point x="290" y="1440"></point>
      <point x="191" y="1408"></point>
      <point x="128" y="1351" type="curve"></point>
      <point x="183" y="1246" type="line"></point>
      <point x="223" y="1279"></point>
      <point x="308" y="1308"></point>
      <point x="376" y="1308" type="curve" smooth="yes"></point>
      <point x="446" y="1308"></point>
      <point x="486" y="1268"></point>
      <point x="486" y="1206" type="curve" smooth="yes"></point>
      <point x="486" y="1139"></point>
      <point x="433" y="1101"></point>
      <point x="329" y="1101" type="curve" smooth="yes"></point>
      <point x="249" y="1101" type="line"></point>
      <point x="249" y="968" type="line"></point>
      <point x="329" y="969" type="line" smooth="yes"></point>
      <point x="439" y="969"></point>
      <point x="511" y="927"></point>
      <point x="511" y="844" type="curve" smooth="yes"></point>
      <point x="511" y="756"></point>
      <point x="455" y="715"></point>
      <point x="375" y="715" type="curve" smooth="yes"></point>
      <point x="314" y="715"></point>
      <point x="223" y="742"></point>
      <point x="178" y="783" type="curve"></point>
      <point x="124" y="664" type="line"></point>
      <point x="192" y="609"></point>
      <point x="295" y="583"></point>
    </contour>
  </outline>
</glyph>
<glyph name="acute" format="1">
  <advance width="758"></advance>
  <unicode hex="00B4"></unicode>
  <outline>
    <contour>
      <point x="242" y="1058" type="line"></point>
      <point x="380" y="1058" type="line"></point>
      <point x="689" y="1469" type="line"></point>
      <point x="420" y="1469" type="line"></point>
    </contour>
    <contour>
      <point x="93" y="1058.0" type="move" name="_top"></point>
    </contour>
  </outline>
</glyph>
<glyph name="paragraph" format="1">
  <advance width="1198"></advance>
  <unicode hex="00B6"></unicode>
  <outline>
    <contour>
      <point x="482" y="-47" type="line"></point>
      <point x="634" y="-47" type="line"></point>
      <point x="634" y="1315" type="line"></point>
      <point x="802" y="1315" type="line"></point>
      <point x="802" y="-47" type="line"></point>
      <point x="955" y="-47" type="line"></point>
      <point x="955" y="1315" type="line"></point>
      <point x="1032" y="1315" type="line"></point>
      <point x="1032" y="1465" type="line"></point>
      <point x="586" y="1465" type="line" smooth="yes"></point>
      <point x="285" y="1465"></point>
      <point x="123" y="1351"></point>
      <point x="123" y="1141" type="curve" smooth="yes"></point>
      <point x="123" y="962"></point>
      <point x="247" y="827"></point>
      <point x="482" y="827" type="curve"></point>
    </contour>
  </outline>
</glyph>
<glyph name="periodcentered" format="1">
  <advance width="663"/>
  <unicode hex="00B7"/>
  <outline>
    <contour>
      <point x="239" y="725" type="line"/>
      <point x="407" y="725" type="line"/>
      <point x="407" y="558" type="line"/>
      <point x="239" y="558" type="line"/>
    </contour>
  </outline>
</glyph>
<glyph name="cedilla" format="1">
  <advance width="235"></advance>
  <unicode hex="00B8"></unicode>
  <outline>
    <contour>
      <point x="0" y="-398" type="line"></point>
      <point x="186" y="-398" type="line"></point>
      <point x="235" y="10" type="line"></point>
      <point x="109" y="10" type="line"></point>
    </contour>
  </outline>
</glyph>
<glyph name="uni00B9" format="1">
  <advance width="853"/>
  <unicode hex="00B9"/>
  <outline>
    <contour>
      <point x="189" y="615" type="line"/>
      <point x="676" y="615" type="line"/>
      <point x="676" y="764" type="line"/>
      <point x="527" y="764" type="line"/>
      <point x="527" y="1492" type="line"/>
      <point x="383" y="1493" type="line"/>
      <point x="371" y="1481"/>
      <point x="191" y="1387"/>
      <point x="176" y="1384" type="curve"/>
      <point x="176" y="1223" type="line"/>
      <point x="193" y="1227"/>
      <point x="306" y="1277"/>
      <point x="343" y="1298" type="curve"/>
      <point x="343" y="764" type="line"/>
      <point x="189" y="764" type="line"/>
    </contour>
  </outline>
</glyph>
<glyph name="ordmasculine" format="1">
  <advance width="932"></advance>
  <unicode hex="00BA"></unicode>
  <outline>
    <contour>
      <point x="283" y="1085" type="curve" smooth="yes"></point>
      <point x="283" y="926"></point>
      <point x="344" y="843"></point>
      <point x="462" y="843" type="curve" smooth="yes"></point>
      <point x="588" y="843"></point>
      <point x="648" y="925"></point>
      <point x="648" y="1082" type="curve" smooth="yes"></point>
      <point x="648" y="1243"></point>
      <point x="583" y="1331"></point>
      <point x="462" y="1331" type="curve" smooth="yes"></point>
      <point x="345" y="1331"></point>
      <point x="283" y="1246"></point>
    </contour>
    <contour>
      <point x="818" y="1085" type="curve" smooth="yes"></point>
      <point x="818" y="871"></point>
      <point x="681" y="702"></point>
      <point x="462" y="702" type="curve" smooth="yes"></point>
      <point x="231" y="702"></point>
      <point x="106" y="869"></point>
      <point x="106" y="1085" type="curve" smooth="yes"></point>
      <point x="106" y="1304"></point>
      <point x="231" y="1472"></point>
      <point x="462" y="1472" type="curve" smooth="yes"></point>
      <point x="699" y="1472"></point>
      <point x="818" y="1307"></point>
    </contour>
  </outline>
</glyph>
<glyph name="guillemotright" format="1">
  <advance width="866"></advance>
  <unicode hex="00BB"></unicode>
  <outline>
    <contour>
      <point x="563" y="988" type="line"></point>
      <point x="392" y="988" type="line"></point>
      <point x="652" y="562" type="line"></point>
      <point x="387" y="138" type="line"></point>
      <point x="560" y="138" type="line"></point>
      <point x="866" y="565" type="line"></point>
    </contour>
    <contour>
      <point x="177" y="988" type="line"></point>
      <point x="4" y="988" type="line"></point>
      <point x="267" y="562" type="line"></point>
      <point x="0" y="138" type="line"></point>
      <point x="175" y="138" type="line"></point>
      <point x="479" y="565" type="line"></point>
    </contour>
  </outline>
</glyph>
<glyph name="onequarter" format="1">
  <advance width="1513"></advance>
  <unicode hex="00BC"></unicode>
  <outline>
    <contour>
      <point x="-16" y="597" type="line"></point>
      <point x="440" y="597" type="line"></point>
      <point x="440" y="741" type="line"></point>
      <point x="303" y="741" type="line"></point>
      <point x="303" y="1492" type="line"></point>
      <point x="168" y="1492" type="line"></point>
      <point x="134" y="1467"></point>
      <point x="14" y="1402"></point>
      <point x="-30" y="1383" type="curve"></point>
      <point x="-30" y="1238" type="line"></point>
      <point x="-15" y="1243"></point>
      <point x="91" y="1292"></point>
      <point x="128" y="1312" type="curve"></point>
      <point x="128" y="741" type="line"></point>
      <point x="-16" y="741" type="line"></point>
    </contour>
    <contour>
      <point x="1216" y="0" type="line"></point>
      <point x="1368" y="0" type="line"></point>
      <point x="1368" y="184" type="line"></point>
      <point x="1476" y="184" type="line"></point>
      <point x="1481" y="312" type="line"></point>
      <point x="1368" y="312" type="line"></point>
      <point x="1368" y="867" type="line"></point>
      <point x="1206" y="867" type="line"></point>
      <point x="832" y="309" type="line"></point>
      <point x="832" y="184" type="line"></point>
      <point x="1216" y="184" type="line"></point>
    </contour>
    <contour>
      <point x="194" y="0" type="line"></point>
      <point x="375" y="0" type="line"></point>
      <point x="1328" y="1492" type="line"></point>
      <point x="1152" y="1492" type="line"></point>
    </contour>
    <contour>
      <point x="999" y="312" type="line"></point>
      <point x="1216" y="665" type="line"></point>
      <point x="1216" y="312" type="line"></point>
    </contour>
  </outline>
</glyph>
<glyph name="onehalf" format="1">
  <advance width="1564"></advance>
  <unicode hex="00BD"></unicode>
  <outline>
    <contour>
      <point x="-6" y="597" type="line"></point>
      <point x="448" y="597" type="line"></point>
      <point x="448" y="741" type="line"></point>
      <point x="311" y="741" type="line"></point>
      <point x="311" y="1493" type="line"></point>
      <point x="176" y="1493" type="line"></point>
      <point x="142" y="1467"></point>
      <point x="22" y="1403"></point>
      <point x="-20" y="1383" type="curve"></point>
      <point x="-20" y="1238" type="line"></point>
      <point x="-5" y="1243"></point>
      <point x="99" y="1292"></point>
      <point x="136" y="1313" type="curve"></point>
      <point x="136" y="741" type="line"></point>
      <point x="-6" y="741" type="line"></point>
    </contour>
    <contour>
      <point x="202" y="0" type="line"></point>
      <point x="383" y="0" type="line"></point>
      <point x="1336" y="1493" type="line"></point>
      <point x="1160" y="1493" type="line"></point>
    </contour>
    <contour>
      <point x="962" y="-20" type="line"></point>
      <point x="1503" y="-20" type="line"></point>
      <point x="1516" y="118" type="line"></point>
      <point x="1191" y="118" type="line"></point>
      <point x="1377" y="283"></point>
      <point x="1520" y="395"></point>
      <point x="1520" y="587" type="curve" smooth="yes"></point>
      <point x="1520" y="762"></point>
      <point x="1381" y="859"></point>
      <point x="1237" y="859" type="curve" smooth="yes"></point>
      <point x="1116" y="859"></point>
      <point x="1005" y="809"></point>
      <point x="947" y="716" type="curve"></point>
      <point x="1024" y="609" type="line"></point>
      <point x="1074" y="678"></point>
      <point x="1153" y="711"></point>
      <point x="1226" y="711" type="curve" smooth="yes"></point>
      <point x="1292" y="711"></point>
      <point x="1357" y="666"></point>
      <point x="1357" y="580" type="curve" smooth="yes"></point>
      <point x="1357" y="448"></point>
      <point x="1035" y="191"></point>
      <point x="962" y="115" type="curve"></point>
    </contour>
  </outline>
</glyph>
<glyph name="threequarters" format="1">
  <advance width="1512"></advance>
  <unicode hex="00BE"></unicode>
  <outline>
    <contour>
      <point x="1247" y="0" type="line"></point>
      <point x="1399" y="0" type="line"></point>
      <point x="1399" y="184" type="line"></point>
      <point x="1507" y="184" type="line"></point>
      <point x="1512" y="312" type="line"></point>
      <point x="1399" y="312" type="line"></point>
      <point x="1399" y="867" type="line"></point>
      <point x="1237" y="867" type="line"></point>
      <point x="863" y="309" type="line"></point>
      <point x="863" y="184" type="line"></point>
      <point x="1247" y="184" type="line"></point>
    </contour>
    <contour>
      <point x="1030" y="312" type="line"></point>
      <point x="1247" y="665" type="line"></point>
      <point x="1247" y="312" type="line"></point>
    </contour>
    <contour>
      <point x="14" y="597" type="line"></point>
      <point x="471" y="597" type="line"></point>
      <point x="471" y="741" type="line"></point>
      <point x="334" y="741" type="line"></point>
      <point x="334" y="1492" type="line"></point>
      <point x="199" y="1492" type="line"></point>
      <point x="165" y="1467"></point>
      <point x="45" y="1402"></point>
      <point x="0" y="1383" type="curve"></point>
      <point x="0" y="1238" type="line"></point>
      <point x="15" y="1243"></point>
      <point x="122" y="1292"></point>
      <point x="159" y="1312" type="curve"></point>
      <point x="159" y="741" type="line"></point>
      <point x="14" y="741" type="line"></point>
    </contour>
    <contour>
      <point x="225" y="0" type="line"></point>
      <point x="406" y="0" type="line"></point>
      <point x="1359" y="1492" type="line"></point>
      <point x="1183" y="1492" type="line"></point>
    </contour>
  </outline>
</glyph>
<glyph name="AE" format="1">
  <advance width="1564"></advance>
  <unicode hex="00C6"></unicode>
  <outline>
    <contour>
      <point x="-46" y="0" type="line"></point>
      <point x="191" y="0" type="line"></point>
      <point x="399" y="499" type="line"></point>
      <point x="256" y="433" type="line"></point>
      <point x="858" y="433" type="line"></point>
      <point x="858" y="433"></point>
      <point x="858" y="1492"></point>
      <point x="858" y="1492" type="curve"></point>
      <point x="578" y="1492" type="line"></point>
    </contour>
    <contour>
      <point x="409" y="532" type="line"></point>
      <point x="786" y="1481" type="line"></point>
      <point x="760" y="1481" type="line"></point>
      <point x="760" y="533" type="line"></point>
      <point x="808" y="607" type="line"></point>
      <point x="306" y="607" type="line"></point>
    </contour>
    <contour>
      <point x="710" y="0" type="line"></point>
      <point x="1572" y="0" type="line"></point>
      <point x="1580" y="195" type="line"></point>
      <point x="880" y="195" type="line"></point>
      <point x="950" y="125" type="line"></point>
      <point x="950" y="754" type="line"></point>
      <point x="879" y="682" type="line"></point>
      <point x="1510" y="682" type="line"></point>
      <point x="1510" y="873" type="line"></point>
      <point x="880" y="873" type="line"></point>
      <point x="950" y="802" type="line"></point>
      <point x="950" y="1372" type="line"></point>
      <point x="880" y="1302" type="line"></point>
      <point x="1553" y="1302" type="line"></point>
      <point x="1563" y="1492" type="line"></point>
      <point x="710" y="1492" type="line"></point>
    </contour>
  </outline>
</glyph>
<glyph name="Eth" format="1">
  <advance width="1512"/>
  <unicode hex="00D0"/>
  <outline>
    <contour>
      <point x="674" y="817" type="line"/>
      <point x="36" y="817" type="line"/>
      <point x="36" y="661" type="line"/>
      <point x="674" y="661" type="line"/>
    </contour>
    <component base="D"/>
  </outline>
</glyph>
<glyph name="Eth" format="1">
  <advance width="995"/>
  <unicode hex="00D0"/>
  <outline>
    <contour>
      <point x="801" y="835" type="line"/>
      <point x="163" y="835" type="line"/>
      <point x="163" y="676" type="line"/>
      <point x="801" y="676" type="line"/>
    </contour>
    <component base="D"/>
  </outline>
</glyph>
<glyph name="multiply" format="1">
  <advance width="979"></advance>
  <unicode hex="00D7"></unicode>
  <outline>
    <contour>
      <point x="774" y="168" type="line"></point>
      <point x="892" y="296" type="line"></point>
      <point x="892" y="296"></point>
      <point x="665" y="539"></point>
      <point x="616" y="589" type="curve"></point>
      <point x="890" y="881" type="line"></point>
      <point x="769" y="1006" type="line"></point>
      <point x="495" y="716" type="line"></point>
      <point x="218" y="1008" type="line"></point>
      <point x="100" y="883" type="line"></point>
      <point x="373" y="589" type="line"></point>
      <point x="96" y="294" type="line"></point>
      <point x="214" y="167" type="line"></point>
      <point x="495" y="461" type="line"></point>
    </contour>
  </outline>
</glyph>
<glyph name="Oslash" format="1">
  <advance width="1616"/>
  <unicode hex="00D8"/>
  <outline>
    <contour>
      <point x="543" y="-239" type="line"/>
      <point x="1276" y="1635" type="line"/>
      <point x="1151" y="1682" type="line"/>
      <point x="424" y="-197" type="line"/>
    </contour>
    <component base="O"/>
  </outline>
</glyph>
<glyph name="Oslash" format="1">
  <advance width="1165"></advance>
  <unicode hex="00D8"></unicode>
  <outline>
    <contour>
      <point x="266" y="-229" type="line"></point>
      <point x="999" y="1610" type="line"></point>
      <point x="874" y="1656" type="line"></point>
      <point x="147" y="-187" type="line"></point>
    </contour>
    <component base="O"></component>
  </outline>
</glyph>
<glyph name="Thorn" format="1">
  <advance width="1185"/>
  <unicode hex="00DE"/>
  <outline>
    <contour>
      <point x="138" y="0" type="line"/>
      <point x="378" y="0" type="line"/>
      <point x="378" y="500" type="line"/>
      <point x="311" y="431" type="line"/>
      <point x="573" y="431" type="line" smooth="yes"/>
      <point x="959" y="431"/>
      <point x="1078" y="582"/>
      <point x="1078" y="828" type="curve" smooth="yes"/>
      <point x="1078" y="1105"/>
      <point x="876" y="1188"/>
      <point x="574" y="1188" type="curve" smooth="yes"/>
      <point x="138" y="1188" type="line"/>
    </contour>
    <contour>
      <point x="566" y="610" type="curve" smooth="yes"/>
      <point x="313" y="610" type="line"/>
      <point x="378" y="550" type="line"/>
      <point x="378" y="1075" type="line"/>
      <point x="313" y="1016" type="line"/>
      <point x="584" y="1016" type="line" smooth="yes"/>
      <point x="761" y="1016"/>
      <point x="825" y="963"/>
      <point x="825" y="823" type="curve" smooth="yes"/>
      <point x="825" y="676"/>
      <point x="791" y="610"/>
    </contour>
    <contour>
      <point x="378" y="1175" type="line"/>
      <point x="378" y="1492" type="line"/>
      <point x="138" y="1492" type="line"/>
      <point x="138" y="1175" type="line"/>
    </contour>
  </outline>
</glyph>
<glyph name="germandbls" format="1">
  <advance width="1279"/>
  <unicode hex="00DF"/>
  <outline>
    <contour>
      <point x="373" y="0" type="line"/>
      <point x="150" y="0" type="line"/>
      <point x="150" y="1040" type="line" smooth="yes"/>
      <point x="150" y="1335"/>
      <point x="296" y="1514"/>
      <point x="596" y="1514" type="curve" smooth="yes"/>
      <point x="826" y="1514"/>
      <point x="1005" y="1401"/>
      <point x="1005" y="1183" type="curve" smooth="yes"/>
      <point x="1005" y="945"/>
      <point x="814" y="873"/>
      <point x="814" y="790" type="curve" smooth="yes"/>
      <point x="814" y="682"/>
      <point x="1181" y="621"/>
      <point x="1181" y="311" type="curve" smooth="yes"/>
      <point x="1181" y="104"/>
      <point x="1049" y="-20"/>
      <point x="834" y="-20" type="curve" smooth="yes"/>
      <point x="724" y="-20"/>
      <point x="602" y="9"/>
      <point x="499" y="54" type="curve"/>
      <point x="554" y="218" type="line"/>
      <point x="602" y="193"/>
      <point x="700" y="160"/>
      <point x="794" y="160" type="curve" smooth="yes"/>
      <point x="896" y="160"/>
      <point x="956" y="213"/>
      <point x="956" y="314" type="curve" smooth="yes"/>
      <point x="956" y="513"/>
      <point x="598" y="572"/>
      <point x="598" y="767" type="curve" smooth="yes"/>
      <point x="598" y="938"/>
      <point x="799" y="992"/>
      <point x="799" y="1178" type="curve" smooth="yes"/>
      <point x="799" y="1275"/>
      <point x="727" y="1341"/>
      <point x="606" y="1341" type="curve" smooth="yes"/>
      <point x="432" y="1341"/>
      <point x="373" y="1242"/>
      <point x="373" y="1039" type="curve" smooth="yes"/>
    </contour>
  </outline>
</glyph>
<glyph name="ae" format="1">
  <advance width="1611"/>
  <unicode hex="00E6"/>
  <outline>
    <contour>
      <point x="379" y="-20" type="curve" smooth="yes"/>
      <point x="557" y="-20"/>
      <point x="738" y="57"/>
      <point x="827" y="148" type="curve"/>
      <point x="905" y="41"/>
      <point x="1062" y="-18"/>
      <point x="1235" y="-18" type="curve" smooth="yes"/>
      <point x="1393" y="-18"/>
      <point x="1489" y="29"/>
      <point x="1544" y="66" type="curve"/>
      <point x="1510" y="223" type="line"/>
      <point x="1444" y="188"/>
      <point x="1355" y="155"/>
      <point x="1239" y="155" type="curve" smooth="yes"/>
      <point x="1057" y="156"/>
      <point x="921" y="242"/>
      <point x="911" y="480" type="curve"/>
      <point x="1448" y="480"/>
      <point x="1572" y="606"/>
      <point x="1572" y="783" type="curve" smooth="yes"/>
      <point x="1572" y="947"/>
      <point x="1482" y="1101"/>
      <point x="1196" y="1101" type="curve" smooth="yes"/>
      <point x="1042" y="1101"/>
      <point x="893" y="1020"/>
      <point x="833" y="900" type="curve"/>
      <point x="774" y="1029"/>
      <point x="634" y="1101"/>
      <point x="469" y="1101" type="curve" smooth="yes"/>
      <point x="315" y="1101"/>
      <point x="186" y="1063"/>
      <point x="98" y="1020" type="curve"/>
      <point x="147" y="857" type="line"/>
      <point x="222" y="892"/>
      <point x="329" y="925"/>
      <point x="446" y="925" type="curve"/>
      <point x="590" y="925"/>
      <point x="696" y="873"/>
      <point x="696" y="714" type="curve" smooth="yes"/>
      <point x="696" y="627" type="line"/>
      <point x="566" y="627" type="line" smooth="yes"/>
      <point x="242" y="627"/>
      <point x="49" y="562"/>
      <point x="49" y="320" type="curve" smooth="yes"/>
      <point x="49" y="114"/>
      <point x="184" y="-20"/>
    </contour>
    <contour>
      <point x="410" y="145" type="curve" smooth="yes"/>
      <point x="313" y="145"/>
      <point x="256" y="198"/>
      <point x="256" y="312" type="curve" smooth="yes"/>
      <point x="256" y="425"/>
      <point x="328" y="476"/>
      <point x="559" y="476" type="curve" smooth="yes"/>
      <point x="700" y="476" type="line"/>
      <point x="703" y="402"/>
      <point x="724" y="323"/>
      <point x="742" y="278" type="curve"/>
      <point x="657" y="201"/>
      <point x="516" y="145"/>
    </contour>
    <contour>
      <point x="913" y="627" type="curve"/>
      <point x="936" y="875"/>
      <point x="1072" y="944"/>
      <point x="1213" y="944" type="curve" smooth="yes"/>
      <point x="1338" y="944"/>
      <point x="1396" y="897"/>
      <point x="1396" y="792" type="curve" smooth="yes"/>
      <point x="1396" y="677"/>
      <point x="1281" y="627"/>
    </contour>
  </outline>
</glyph>
<glyph name="eth" format="1">
  <advance width="1232"/>
  <unicode hex="00F0"/>
  <outline>
    <contour>
      <point x="609" y="-22" type="curve" smooth="yes"/>
      <point x="934" y="-22"/>
      <point x="1121" y="177"/>
      <point x="1121" y="478" type="curve" smooth="yes"/>
      <point x="1120" y="621"/>
      <point x="1083" y="756"/>
      <point x="1026" y="859" type="curve"/>
      <point x="953" y="990"/>
      <point x="849" y="1112"/>
      <point x="704" y="1275" type="curve"/>
      <point x="928" y="1364" type="line"/>
      <point x="868" y="1518" type="line"/>
      <point x="593" y="1407" type="line"/>
      <point x="465" y="1536" type="line"/>
      <point x="206" y="1536" type="line"/>
      <point x="414" y="1331" type="line"/>
      <point x="220" y="1252" type="line"/>
      <point x="278" y="1099" type="line"/>
      <point x="526" y="1198" type="line"/>
      <point x="626" y="1098"/>
      <point x="727" y="976"/>
      <point x="774" y="903" type="curve"/>
      <point x="727" y="929"/>
      <point x="663" y="962"/>
      <point x="576" y="962" type="curve" smooth="yes"/>
      <point x="290" y="962"/>
      <point x="93" y="770"/>
      <point x="93" y="482" type="curve" smooth="yes"/>
      <point x="93" y="199"/>
      <point x="290" y="-22"/>
    </contour>
    <contour>
      <point x="615" y="156" type="curve" smooth="yes"/>
      <point x="413" y="156"/>
      <point x="306" y="305"/>
      <point x="306" y="483" type="curve" smooth="yes"/>
      <point x="306" y="671"/>
      <point x="415" y="800"/>
      <point x="609" y="800" type="curve" smooth="yes"/>
      <point x="808" y="800"/>
      <point x="920" y="659"/>
      <point x="920" y="484" type="curve" smooth="yes"/>
      <point x="920" y="286"/>
      <point x="813" y="156"/>
    </contour>
  </outline>
</glyph>
<glyph name="divide" format="1">
  <advance width="1165"></advance>
  <unicode hex="00F7"></unicode>
  <outline>
    <contour>
      <point x="464" y="18" type="line"></point>
      <point x="707" y="18" type="line"></point>
      <point x="707" y="261" type="line"></point>
      <point x="464" y="261" type="line"></point>
    </contour>
    <contour>
      <point x="75" y="472" type="line"></point>
      <point x="1095" y="472" type="line"></point>
      <point x="1095" y="642" type="line"></point>
      <point x="75" y="642" type="line"></point>
    </contour>
    <contour>
      <point x="464" y="847" type="line"></point>
      <point x="713" y="847" type="line"></point>
      <point x="713" y="1081" type="line"></point>
      <point x="464" y="1081" type="line"></point>
    </contour>
  </outline>
</glyph>
<glyph name="oslash" format="1">
  <advance width="1090"></advance>
  <unicode hex="00F8"></unicode>
  <outline>
    <contour>
      <point x="190" y="-152" type="line"></point>
      <point x="924" y="1223" type="line"></point>
      <point x="847" y="1268" type="line"></point>
      <point x="119" y="-107" type="line"></point>
    </contour>
    <component base="o"></component>
  </outline>
</glyph>
<glyph name="thorn" format="1">
  <advance width="632"></advance>
  <unicode hex="00FE"></unicode>
  <outline>
    <contour>
      <point x="198" y="1435" type="line"></point>
      <point x="198" y="751" type="line"></point>
      <point x="423" y="751" type="line"></point>
      <point x="423" y="1454" type="line"></point>
    </contour>
    <component base="p"></component>
  </outline>
</glyph>
<glyph name="Dcroat" format="1">
  <advance width="900"></advance>
  <unicode hex="0110"></unicode>
  <outline>
    <contour>
      <point x="182" y="719" type="line"></point>
      <point x="182" y="812" type="line"></point>
      <point x="706" y="812" type="line"></point>
      <point x="706" y="719" type="line"></point>
    </contour>
    <component base="D"></component>
  </outline>
</glyph>
<glyph name="Hbar" format="1">
  <advance width="1531"></advance>
  <unicode hex="0126"></unicode>
  <outline>
    <contour>
      <point x="177" y="1" type="line"></point>
      <point x="177" y="1116" type="line"></point>
      <point x="92" y="1116" type="line"></point>
      <point x="92" y="1239" type="line"></point>
      <point x="177" y="1239" type="line"></point>
      <point x="177" y="1425" type="line"></point>
      <point x="398" y="1425" type="line"></point>
      <point x="398" y="1239" type="line"></point>
      <point x="1124" y="1239" type="line"></point>
      <point x="1124" y="1425" type="line"></point>
      <point x="1347" y="1425" type="line"></point>
      <point x="1347" y="1239" type="line"></point>
      <point x="1432" y="1239" type="line"></point>
      <point x="1432" y="1116" type="line"></point>
      <point x="1347" y="1116" type="line"></point>
      <point x="1347" y="1" type="line"></point>
      <point x="1124" y="1" type="line"></point>
      <point x="1124" y="651" type="line"></point>
      <point x="398" y="651" type="line"></point>
      <point x="398" y="1" type="line"></point>
    </contour>
    <contour>
      <point x="398" y="824" type="line"></point>
      <point x="1124" y="824" type="line"></point>
      <point x="1124" y="1116" type="line"></point>
      <point x="398" y="1116" type="line"></point>
    </contour>
  </outline>
</glyph>
<glyph name="hbar" format="1">
  <advance width="1202"></advance>
  <unicode hex="0127"></unicode>
  <outline>
    <contour>
      <point x="138" y="0" type="line"></point>
      <point x="351" y="0" type="line"></point>
      <point x="351" y="752" type="line"></point>
      <point x="386" y="851"></point>
      <point x="506" y="956"></point>
      <point x="652" y="956" type="curve" smooth="yes"></point>
      <point x="810" y="956"></point>
      <point x="842" y="858"></point>
      <point x="842" y="642" type="curve" smooth="yes"></point>
      <point x="842" y="0" type="line"></point>
      <point x="1053" y="0" type="line"></point>
      <point x="1053" y="671" type="line" smooth="yes"></point>
      <point x="1053" y="984"></point>
      <point x="925" y="1132"></point>
      <point x="709" y="1132" type="curve" smooth="yes"></point>
      <point x="560" y="1132"></point>
      <point x="439" y="1078"></point>
      <point x="351" y="980" type="curve"></point>
      <point x="351" y="1246" type="line"></point>
      <point x="625" y="1246" type="line"></point>
      <point x="625" y="1382" type="line"></point>
      <point x="351" y="1382" type="line"></point>
      <point x="351" y="1520" type="line"></point>
      <point x="138" y="1499" type="line"></point>
      <point x="138" y="1382" type="line"></point>
      <point x="45" y="1382" type="line"></point>
      <point x="45" y="1246" type="line"></point>
      <point x="138" y="1246" type="line"></point>
    </contour>
  </outline>
</glyph>
<glyph name="dotlessi" format="1">
  <advance width="632"></advance>
  <unicode hex="0131"></unicode>
  <outline>
    <contour>
      <point x="198" y="-7" type="line"></point>
      <point x="417" y="-7" type="line"></point>
      <point x="417" y="1058" type="line"></point>
      <point x="198" y="1058" type="line"></point>
    </contour>
  </outline>
</glyph>
<glyph name="kgreenlandic" format="1">
  <advance width="1113"></advance>
  <unicode hex="0138"></unicode>
  <outline>
    <contour>
      <point x="128" y="0" type="line"></point>
      <point x="350" y="0" type="line"></point>
      <point x="350" y="438" type="line"></point>
      <point x="296" y="323" type="line"></point>
      <point x="492" y="511" type="line"></point>
      <point x="420" y="511" type="line"></point>
      <point x="820" y="0" type="line"></point>
      <point x="1083" y="0" type="line"></point>
      <point x="578" y="637" type="line"></point>
      <point x="568" y="532" type="line"></point>
      <point x="1061" y="1081" type="line"></point>
      <point x="786" y="1081" type="line"></point>
      <point x="302" y="533" type="line"></point>
      <point x="343" y="533" type="line"></point>
      <point x="350" y="800" type="line"></point>
      <point x="350" y="1081" type="line"></point>
      <point x="128" y="1081" type="line"></point>
    </contour>
  </outline>
</glyph>
<glyph name="Eng" format="1">
  <advance width="1424"></advance>
  <unicode hex="014A"></unicode>
  <outline>
    <contour>
      <point x="814" y="-325" type="curve" smooth="yes"></point>
      <point x="797" y="-325"></point>
      <point x="750" y="-324"></point>
      <point x="668" y="-316" type="curve"></point>
      <point x="647" y="-118" type="line"></point>
      <point x="738" y="-124"></point>
      <point x="779" y="-125"></point>
      <point x="792" y="-125" type="curve" smooth="yes"></point>
      <point x="1017" y="-125"></point>
      <point x="1042" y="-58"></point>
      <point x="1042" y="170" type="curve" smooth="yes"></point>
      <point x="1042" y="985" type="line" smooth="yes"></point>
      <point x="1042" y="1236"></point>
      <point x="974" y="1323"></point>
      <point x="787" y="1323" type="curve" smooth="yes"></point>
      <point x="620" y="1323"></point>
      <point x="454" y="1228"></point>
      <point x="365" y="1082" type="curve"></point>
      <point x="365" y="7" type="line"></point>
      <point x="129" y="7" type="line"></point>
      <point x="128" y="1495" type="line"></point>
      <point x="340" y="1495" type="line"></point>
      <point x="361" y="1307" type="line"></point>
      <point x="503" y="1461"></point>
      <point x="683" y="1519"></point>
      <point x="845" y="1519" type="curve" smooth="yes"></point>
      <point x="1132" y="1519"></point>
      <point x="1279" y="1327"></point>
      <point x="1279" y="993" type="curve" smooth="yes"></point>
      <point x="1279" y="169" type="line" smooth="yes"></point>
      <point x="1279" y="-146"></point>
      <point x="1176" y="-325"></point>
    </contour>
  </outline>
</glyph>
<glyph name="eng" format="1">
  <advance width="1132"></advance>
  <unicode hex="014B"></unicode>
  <outline>
    <contour>
      <point x="597" y="-327" type="line"></point>
      <point x="665" y="-327" type="line" smooth="yes"></point>
      <point x="980" y="-327"></point>
      <point x="1033" y="-174"></point>
      <point x="1034" y="124" type="curve" smooth="yes"></point>
      <point x="1034" y="655" type="line" smooth="yes"></point>
      <point x="1034" y="930"></point>
      <point x="920" y="1083"></point>
      <point x="670" y="1083" type="curve" smooth="yes"></point>
      <point x="517" y="1083"></point>
      <point x="408" y="1020"></point>
      <point x="326" y="922" type="curve"></point>
      <point x="303" y="1059" type="line"></point>
      <point x="112" y="1059" type="line"></point>
      <point x="112" y="-6" type="line"></point>
      <point x="342" y="-6" type="line"></point>
      <point x="342" y="546" type="line" smooth="yes"></point>
      <point x="342" y="617"></point>
      <point x="345" y="681"></point>
      <point x="355" y="734" type="curve"></point>
      <point x="391" y="835"></point>
      <point x="476" y="910"></point>
      <point x="618" y="910" type="curve" smooth="yes"></point>
      <point x="769" y="910"></point>
      <point x="804" y="813"></point>
      <point x="805" y="647" type="curve" smooth="yes"></point>
      <point x="805" y="74" type="line" smooth="yes"></point>
      <point x="805" y="-115"></point>
      <point x="789" y="-148"></point>
      <point x="630" y="-148" type="curve" smooth="yes"></point>
      <point x="577" y="-148" type="line"></point>
    </contour>
  </outline>
</glyph>
<glyph name="OE" format="1">
  <advance width="1531"></advance>
  <unicode hex="0152"></unicode>
  <outline>
    <contour>
      <point x="545" y="-24" type="curve"></point>
      <point x="480" y="-24"></point>
      <point x="502" y="98"></point>
      <point x="559" y="277" type="curve"></point>
      <point x="564" y="405"></point>
      <point x="644" y="451"></point>
      <point x="762" y="451" type="curve" smooth="yes"></point>
      <point x="809" y="451"></point>
      <point x="1492" y="434"></point>
      <point x="1510" y="414" type="curve"></point>
      <point x="1524" y="591" type="line"></point>
      <point x="1223" y="591" type="line"></point>
      <point x="1219" y="845" type="line"></point>
      <point x="1503" y="845" type="line"></point>
      <point x="1503" y="825" type="line"></point>
      <point x="1206" y="825" type="line"></point>
      <point x="1206" y="1040" type="line"></point>
      <point x="1522" y="1040" type="line"></point>
      <point x="1536" y="1013" type="line"></point>
      <point x="1044" y="1013" type="line"></point>
      <point x="1041" y="936" type="line"></point>
      <point x="977" y="976"></point>
      <point x="728" y="999"></point>
      <point x="637" y="999" type="curve" smooth="yes"></point>
      <point x="357" y="999"></point>
      <point x="147" y="813"></point>
      <point x="145" y="520" type="curve"></point>
      <point x="141" y="212"></point>
      <point x="286" y="-24"></point>
    </contour>
    <contour>
      <point x="545" y="157" type="curve"></point>
      <point x="372" y="158"></point>
      <point x="324" y="346"></point>
      <point x="334" y="539" type="curve"></point>
      <point x="335" y="727"></point>
      <point x="441" y="1239"></point>
      <point x="637" y="1239" type="curve"></point>
      <point x="718" y="1256"></point>
      <point x="761" y="1234"></point>
      <point x="771" y="1188" type="curve"></point>
      <point x="666" y="1188"></point>
      <point x="600" y="556"></point>
      <point x="596" y="441" type="curve"></point>
      <point x="550" y="284"></point>
      <point x="512" y="159"></point>
    </contour>
  </outline>
</glyph>
<glyph name="tbar" format="1">
  <advance width="641"></advance>
  <unicode hex="0167"></unicode>
  <outline>
    <contour>
      <point x="452" y="-19" type="curve" smooth="yes"></point>
      <point x="187" y="-19"></point>
      <point x="167" y="113"></point>
      <point x="167" y="452" type="curve" smooth="yes"></point>
      <point x="167" y="648" type="line"></point>
      <point x="13" y="648" type="line"></point>
      <point x="13" y="776" type="line"></point>
      <point x="167" y="776" type="line"></point>
      <point x="167" y="995" type="line"></point>
      <point x="0" y="995" type="line"></point>
      <point x="14" y="1114" type="line"></point>
      <point x="167" y="1114" type="line"></point>
      <point x="210" y="1367" type="line"></point>
      <point x="333" y="1375" type="line"></point>
      <point x="333" y="1114" type="line"></point>
      <point x="622" y="1114" type="line"></point>
      <point x="622" y="995" type="line"></point>
      <point x="333" y="995" type="line"></point>
      <point x="333" y="776" type="line"></point>
      <point x="541" y="776" type="line"></point>
      <point x="541" y="648" type="line"></point>
      <point x="333" y="648" type="line"></point>
      <point x="333" y="372" type="line" smooth="yes"></point>
      <point x="333" y="164"></point>
      <point x="356" y="119"></point>
      <point x="490" y="119" type="curve" smooth="yes"></point>
      <point x="508" y="119"></point>
      <point x="550" y="126"></point>
      <point x="626" y="131" type="curve"></point>
      <point x="641" y="-6" type="line"></point>
      <point x="517" y="-17"></point>
      <point x="486" y="-19"></point>
    </contour>
  </outline>
</glyph>
<glyph name="uni0237" format="1">
  <advance width="890"></advance>
  <unicode hex="0237"></unicode>
  <outline>
    <contour>
      <point x="281" y="-431" type="line"></point>
      <point x="343" y="-431" type="line" smooth="yes"></point>
      <point x="649" y="-431"></point>
      <point x="710" y="-307"></point>
      <point x="710" y="-19" type="curve" smooth="yes"></point>
      <point x="710" y="1126" type="line"></point>
      <point x="476" y="1126" type="line"></point>
      <point x="476" y="-35" type="line" smooth="yes"></point>
      <point x="476" y="-199"></point>
      <point x="479" y="-248"></point>
      <point x="313" y="-248" type="curve" smooth="yes"></point>
      <point x="249" y="-248" type="line"></point>
    </contour>
  </outline>
</glyph>
<glyph name="uni02BC" format="1">
  <advance width="663"></advance>
  <unicode hex="02BC"></unicode>
  <outline>
    <contour>
      <point x="227" y="1013" type="line"></point>
      <point x="360" y="1013" type="line"></point>
      <point x="456" y="1513" type="line"></point>
      <point x="272" y="1513" type="line"></point>
    </contour>
  </outline>
</glyph>
<glyph name="circumflex" format="1">
  <advance width="995"></advance>
  <unicode hex="02C6"></unicode>
  <outline>
    <contour>
      <point x="265" y="1152" type="line"></point>
      <point x="425" y="1152" type="line"></point>
      <point x="581" y="1314" type="line"></point>
      <point x="745" y="1152" type="line"></point>
      <point x="907" y="1152" type="line"></point>
      <point x="689" y="1467" type="line"></point>
      <point x="487" y="1467" type="line"></point>
    </contour>
    <contour>
      <point x="582" y="1057.97600281" type="move" name="_top"></point>
    </contour>
  </outline>
</glyph>
<glyph name="caron" format="1">
  <advance width="657"></advance>
  <unicode hex="02C7"></unicode>
  <outline>
    <contour>
      <point x="228" y="1095" type="line"></point>
      <point x="425" y="1095" type="line"></point>
      <point x="657" y="1468" type="line"></point>
      <point x="479" y="1468" type="line"></point>
      <point x="318" y="1242" type="line"></point>
      <point x="175" y="1468" type="line"></point>
      <point x="0" y="1468" type="line"></point>
    </contour>
  </outline>
</glyph>
<glyph name="breve" format="1">
  <advance width="900"/>
  <unicode hex="02D8"/>
  <outline>
    <contour>
      <point x="531" y="1209" type="curve" smooth="yes"/>
      <point x="680" y="1209"/>
      <point x="798" y="1288"/>
      <point x="798" y="1466" type="curve"/>
      <point x="651" y="1466" type="line"/>
      <point x="651" y="1384"/>
      <point x="606" y="1352"/>
      <point x="531" y="1352" type="curve" smooth="yes"/>
      <point x="456" y="1352"/>
      <point x="413" y="1384"/>
      <point x="413" y="1466" type="curve"/>
      <point x="265" y="1466" type="line"/>
      <point x="265" y="1289"/>
      <point x="383" y="1209"/>
    </contour>
  </outline>
</glyph>
<glyph name="ring" format="1">
  <advance width="805"></advance>
  <unicode hex="02DA"></unicode>
  <outline>
    <contour>
      <point x="471" y="1086" type="curve" smooth="yes"></point>
      <point x="596" y="1086"></point>
      <point x="678" y="1180"></point>
      <point x="678" y="1288" type="curve" smooth="yes"></point>
      <point x="678" y="1396"></point>
      <point x="598" y="1489"></point>
      <point x="471" y="1489" type="curve" smooth="yes"></point>
      <point x="345" y="1489"></point>
      <point x="265" y="1397"></point>
      <point x="265" y="1288" type="curve" smooth="yes"></point>
      <point x="265" y="1180"></point>
      <point x="346" y="1086"></point>
    </contour>
    <contour>
      <point x="471" y="1183" type="curve" smooth="yes"></point>
      <point x="411" y="1183"></point>
      <point x="378" y="1230"></point>
      <point x="378" y="1287" type="curve" smooth="yes"></point>
      <point x="378" y="1341"></point>
      <point x="414" y="1391"></point>
      <point x="471" y="1391" type="curve" smooth="yes"></point>
      <point x="529" y="1391"></point>
      <point x="566" y="1341"></point>
      <point x="566" y="1287" type="curve" smooth="yes"></point>
      <point x="566" y="1231"></point>
      <point x="529" y="1183"></point>
    </contour>
  </outline>
</glyph>
<glyph name="ogonek" format="1">
  <advance width="805"></advance>
  <unicode hex="02DB"></unicode>
  <outline>
    <contour>
      <point x="636" y="-395" type="curve"></point>
      <point x="631" y="-261" type="line" smooth="yes"></point>
      <point x="615" y="-269"></point>
      <point x="560" y="-291"></point>
      <point x="509" y="-291" type="curve" smooth="yes"></point>
      <point x="466" y="-291"></point>
      <point x="433" y="-259"></point>
      <point x="433" y="-213" type="curve" smooth="yes"></point>
      <point x="433" y="-145"></point>
      <point x="491" y="-46"></point>
      <point x="562" y="9" type="curve"></point>
      <point x="461" y="9" type="line"></point>
      <point x="372" y="-34"></point>
      <point x="265" y="-134"></point>
      <point x="265" y="-260" type="curve" smooth="yes"></point>
      <point x="265" y="-371"></point>
      <point x="348" y="-430"></point>
      <point x="466" y="-430" type="curve" smooth="yes"></point>
      <point x="524" y="-430"></point>
      <point x="588" y="-415"></point>
    </contour>
  </outline>
</glyph>
<glyph name="tilde" format="1">
  <advance width="932"></advance>
  <unicode hex="02DC"></unicode>
  <outline>
    <contour>
      <point x="349" y="1203" type="line"></point>
      <point x="362" y="1272"></point>
      <point x="386" y="1298"></point>
      <point x="421" y="1298" type="curve" smooth="yes"></point>
      <point x="490" y="1298"></point>
      <point x="598" y="1203"></point>
      <point x="707" y="1203" type="curve" smooth="yes"></point>
      <point x="826" y="1203"></point>
      <point x="878" y="1310"></point>
      <point x="878" y="1431" type="curve"></point>
      <point x="763" y="1431" type="line"></point>
      <point x="751" y="1370"></point>
      <point x="731" y="1351"></point>
      <point x="702" y="1351" type="curve" smooth="yes"></point>
      <point x="643" y="1351"></point>
      <point x="549" y="1432"></point>
      <point x="421" y="1432" type="curve" smooth="yes"></point>
      <point x="290" y="1432"></point>
      <point x="235" y="1329"></point>
      <point x="235" y="1203" type="curve"></point>
    </contour>
  </outline>
</glyph>
<glyph name="hungarumlaut" format="1">
  <advance width="899"></advance>
  <unicode hex="02DD"></unicode>
  <outline>
    <contour>
      <point x="438" y="1037" type="line"></point>
      <point x="562" y="1037" type="line"></point>
      <point x="874" y="1432" type="line"></point>
      <point x="662" y="1432" type="line"></point>
    </contour>
    <contour>
      <point x="167" y="1037" type="line"></point>
      <point x="291" y="1037" type="line"></point>
      <point x="581" y="1432" type="line"></point>
      <point x="375" y="1432" type="line"></point>
    </contour>
  </outline>
</glyph>
<glyph name="uni0307" format="1">
  <advance width="187"></advance>
  <unicode hex="0307"></unicode>
  <outline>
    <contour>
      <point x="0" y="1250" type="line"></point>
      <point x="187" y="1250" type="line"></point>
      <point x="187" y="1465" type="line"></point>
      <point x="0" y="1465" type="line"></point>
    </contour>
  </outline>
</glyph>
<glyph name="uni030F" format="1">
  <advance width="799"></advance>
  <unicode hex="030F"></unicode>
  <outline>
    <contour>
      <point x="719" y="1129" type="line"></point>
      <point x="614" y="1129" type="line"></point>
      <point x="483" y="1432" type="line"></point>
      <point x="627" y="1432" type="line"></point>
    </contour>
    <contour>
      <point x="526" y="1129" type="line"></point>
      <point x="418" y="1129" type="line"></point>
      <point x="235" y="1432" type="line"></point>
      <point x="391" y="1432" type="line"></point>
    </contour>
  </outline>
</glyph>
<glyph name="uni0311" format="1">
  <advance width="900"></advance>
  <unicode hex="0311"></unicode>
  <outline>
    <contour>
      <point x="265" y="1241" type="curve"></point>
      <point x="412" y="1241" type="line"></point>
      <point x="412" y="1321"></point>
      <point x="466" y="1359"></point>
      <point x="530" y="1359" type="curve" smooth="yes"></point>
      <point x="594" y="1359"></point>
      <point x="650" y="1322"></point>
      <point x="650" y="1241" type="curve"></point>
      <point x="797" y="1241" type="line"></point>
      <point x="797" y="1411"></point>
      <point x="662" y="1486"></point>
      <point x="531" y="1486" type="curve" smooth="yes"></point>
      <point x="399" y="1486"></point>
      <point x="265" y="1410"></point>
    </contour>
  </outline>
</glyph>
<glyph name="uni031B" format="1">
  <advance width="262"></advance>
  <unicode hex="031B"></unicode>
  <outline>
    <contour>
      <point x="111" y="520" type="line"></point>
      <point x="125" y="484"></point>
      <point x="135" y="442"></point>
      <point x="135" y="403" type="curve" smooth="yes"></point>
      <point x="135" y="338"></point>
      <point x="108" y="272"></point>
      <point x="14" y="272" type="curve" smooth="yes"></point>
      <point x="0" y="272" type="line"></point>
      <point x="0" y="173" type="line"></point>
      <point x="20" y="171"></point>
      <point x="39" y="169"></point>
      <point x="58" y="169" type="curve" smooth="yes"></point>
      <point x="210" y="169"></point>
      <point x="262" y="254"></point>
      <point x="262" y="353" type="curve" smooth="yes"></point>
      <point x="262" y="405"></point>
      <point x="246" y="465"></point>
      <point x="222" y="520" type="curve"></point>
    </contour>
  </outline>
</glyph>
<glyph name="uni0326" format="1">
  <advance width="599"></advance>
  <unicode hex="0326"></unicode>
  <outline>
    <contour>
      <point x="235" y="-696" type="line"></point>
      <point x="318" y="-229" type="line"></point>
      <point x="423" y="-229" type="line"></point>
      <point x="302" y="-696" type="line"></point>
    </contour>
  </outline>
</glyph>
<glyph name="Gamma" format="1">
  <advance width="1233"/>
  <unicode hex="0393"/>
  <outline>
    <contour>
      <point x="234" y="0" type="line"/>
      <point x="234" y="1478" type="line"/>
      <point x="1103" y="1477" type="line"/>
      <point x="1098" y="1381" type="line"/>
      <point x="315" y="1382" type="line"/>
      <point x="358" y="1421" type="line"/>
      <point x="358" y="0" type="line"/>
    </contour>
  </outline>
</glyph>
<glyph name="Gamma" format="1">
  <advance width="1132"></advance>
  <unicode hex="0393"></unicode>
  <outline>
    <contour>
      <point x="233" y="1" type="line"></point>
      <point x="233" y="1452" type="line"></point>
      <point x="1102" y="1450" type="line"></point>
      <point x="1097" y="1356" type="line"></point>
      <point x="314" y="1357" type="line"></point>
      <point x="357" y="1395" type="line"></point>
      <point x="357" y="1" type="line"></point>
    </contour>
  </outline>
</glyph>
<glyph name="Delta" format="1">
  <advance width="1279"/>
  <unicode hex="0394"/>
  <outline>
    <contour>
      <point x="4" y="0" type="line"/>
      <point x="525" y="1506" type="line"/>
      <point x="732" y="1506" type="line"/>
      <point x="1256" y="0" type="line"/>
    </contour>
    <contour>
      <point x="267" y="180" type="line"/>
      <point x="995" y="180" type="line"/>
      <point x="628" y="1277" type="line"/>
    </contour>
  </outline>
</glyph>
<glyph name="Lambda" format="1">
  <advance width="1327"></advance>
  <unicode hex="039B"></unicode>
  <outline>
    <contour>
      <point x="23" y="0" type="line"></point>
      <point x="558" y="1502" type="line"></point>
      <point x="744" y="1502" type="line"></point>
      <point x="1279" y="0" type="line"></point>
      <point x="1093" y="0" type="line"></point>
      <point x="651" y="1290" type="line"></point>
      <point x="214" y="0" type="line"></point>
    </contour>
  </outline>
</glyph>
<glyph name="Pi" format="1">
  <advance width="1469"></advance>
  <unicode hex="03A0"></unicode>
  <outline>
    <contour>
      <point x="153" y="0" type="line"></point>
      <point x="153" y="1502" type="line"></point>
      <point x="1295" y="1502" type="line"></point>
      <point x="1295" y="0" type="line"></point>
      <point x="1113" y="0" type="line"></point>
      <point x="1113" y="1342" type="line"></point>
      <point x="335" y="1342" type="line"></point>
      <point x="335" y="0" type="line"></point>
    </contour>
  </outline>
</glyph>
<glyph name="Sigma" format="1">
  <advance width="1198"></advance>
  <unicode hex="03A3"></unicode>
  <outline>
    <contour>
      <point x="172" y="1" type="line"></point>
      <point x="172" y="1421" type="line"></point>
      <point x="1058" y="1421" type="line"></point>
      <point x="1048" y="1231" type="line"></point>
      <point x="418" y="1231" type="line"></point>
      <point x="418" y="831" type="line"></point>
      <point x="1006" y="831" type="line"></point>
      <point x="1006" y="649" type="line"></point>
      <point x="418" y="649" type="line"></point>
      <point x="418" y="190" type="line"></point>
      <point x="1063" y="190" type="line"></point>
      <point x="1056" y="1" type="line"></point>
    </contour>
  </outline>
</glyph>
<glyph name="Phi" format="1">
  <advance width="1611"/>
  <unicode hex="03A6"/>
  <outline>
    <contour>
      <point x="717" y="0" type="line"/>
      <point x="717" y="171" type="line"/>
      <point x="313" y="204"/>
      <point x="99" y="452"/>
      <point x="99" y="776" type="curve" smooth="yes"/>
      <point x="99" y="1104"/>
      <point x="324" y="1333"/>
      <point x="717" y="1364" type="curve"/>
      <point x="717" y="1502" type="line"/>
      <point x="898" y="1502" type="line"/>
      <point x="898" y="1364" type="line"/>
      <point x="1293" y="1335"/>
      <point x="1521" y="1106"/>
      <point x="1521" y="776" type="curve" smooth="yes"/>
      <point x="1521" y="452"/>
      <point x="1307" y="202"/>
      <point x="898" y="171" type="curve"/>
      <point x="898" y="0" type="line"/>
    </contour>
    <contour>
      <point x="717" y="336" type="curve"/>
      <point x="717" y="1199" type="line"/>
      <point x="434" y="1170"/>
      <point x="292" y="1010"/>
      <point x="292" y="776" type="curve" smooth="yes"/>
      <point x="292" y="551"/>
      <point x="421" y="368"/>
    </contour>
    <contour>
      <point x="898" y="336" type="line"/>
      <point x="1195" y="366"/>
      <point x="1327" y="549"/>
      <point x="1327" y="776" type="curve" smooth="yes"/>
      <point x="1327" y="1008"/>
      <point x="1186" y="1171"/>
      <point x="898" y="1199" type="curve"/>
    </contour>
  </outline>
</glyph>
<glyph name="Omega" format="1">
  <advance width="1426"></advance>
  <unicode hex="03A9"></unicode>
  <outline>
    <contour>
      <point x="714" y="201" type="curve" smooth="yes"></point>
      <point x="989" y="201"></point>
      <point x="1152" y="423"></point>
      <point x="1152" y="739" type="curve" smooth="yes"></point>
      <point x="1152" y="1063"></point>
      <point x="986" y="1285"></point>
      <point x="714" y="1285" type="curve" smooth="yes"></point>
      <point x="442" y="1285"></point>
      <point x="273" y="1064"></point>
      <point x="273" y="739" type="curve" smooth="yes"></point>
      <point x="273" y="423"></point>
      <point x="439" y="201"></point>
    </contour>
    <contour>
      <point x="714" y="-20" type="curve" smooth="yes"></point>
      <point x="283" y="-20"></point>
      <point x="0" y="270"></point>
      <point x="0" y="741" type="curve" smooth="yes"></point>
      <point x="0" y="1219"></point>
      <point x="287" y="1507"></point>
      <point x="714" y="1507" type="curve" smooth="yes"></point>
      <point x="1139" y="1507"></point>
      <point x="1426" y="1218"></point>
      <point x="1426" y="741" type="curve" smooth="yes"></point>
      <point x="1426" y="273"></point>
      <point x="1143" y="-20"></point>
    </contour>
  </outline>
</glyph>
<glyph name="rho" format="1">
  <advance width="1232"></advance>
  <unicode hex="03C1"></unicode>
  <outline>
    <contour>
      <point x="638" y="167" type="curve" smooth="yes"></point>
      <point x="442" y="167"></point>
      <point x="358" y="303"></point>
      <point x="358" y="585" type="curve"></point>
      <point x="359" y="836"></point>
      <point x="450" y="964"></point>
      <point x="637" y="964" type="curve" smooth="yes"></point>
      <point x="812" y="964"></point>
      <point x="911" y="825"></point>
      <point x="911" y="569" type="curve" smooth="yes"></point>
      <point x="911" y="314"></point>
      <point x="811" y="167"></point>
    </contour>
    <contour>
      <point x="131" y="-452" type="line"></point>
      <point x="359" y="-441" type="line"></point>
      <point x="359" y="-29" type="line" smooth="yes"></point>
      <point x="359" y="20"></point>
      <point x="357" y="78"></point>
      <point x="354" y="140" type="curve"></point>
      <point x="425" y="50"></point>
      <point x="545" y="-12"></point>
      <point x="679" y="-12" type="curve" smooth="yes"></point>
      <point x="959" y="-12"></point>
      <point x="1139" y="232"></point>
      <point x="1139" y="564" type="curve" smooth="yes"></point>
      <point x="1139" y="894"></point>
      <point x="973" y="1143"></point>
      <point x="689" y="1143" type="curve" smooth="yes"></point>
      <point x="546" y="1143"></point>
      <point x="414" y="1072"></point>
      <point x="353" y="968" type="curve"></point>
      <point x="332" y="1119" type="line"></point>
      <point x="131" y="1119" type="line"></point>
    </contour>
  </outline>
</glyph>
<glyph name="uni040A" format="1">
  <advance width="2131"></advance>
  <unicode hex="040A"></unicode>
  <outline>
    <contour>
      <point x="1030" y="1" type="line"></point>
      <point x="1551" y="1" type="line" smooth="yes"></point>
      <point x="1880" y="1"></point>
      <point x="2073" y="137"></point>
      <point x="2073" y="412" type="curve" smooth="yes"></point>
      <point x="2073" y="689"></point>
      <point x="1898" y="820"></point>
      <point x="1554" y="820" type="curve" smooth="yes"></point>
      <point x="1206" y="820" type="line"></point>
      <point x="1282" y="746" type="line"></point>
      <point x="1283" y="1418" type="line"></point>
      <point x="1030" y="1418" type="line"></point>
      <point x="1030" y="754" type="line"></point>
      <point x="1103" y="820" type="line"></point>
      <point x="317" y="820" type="line"></point>
      <point x="394" y="754" type="line"></point>
      <point x="394" y="1418" type="line"></point>
      <point x="141" y="1418" type="line"></point>
      <point x="141" y="1" type="line"></point>
      <point x="394" y="1" type="line"></point>
      <point x="394" y="706" type="line"></point>
      <point x="317" y="638" type="line"></point>
      <point x="1108" y="638" type="line"></point>
      <point x="1030" y="706" type="line"></point>
    </contour>
    <contour>
      <point x="1283" y="86" type="line"></point>
      <point x="1283" y="714" type="line"></point>
      <point x="1207" y="638" type="line"></point>
      <point x="1541" y="638" type="line" smooth="yes"></point>
      <point x="1739" y="638"></point>
      <point x="1823" y="581"></point>
      <point x="1823" y="413" type="curve" smooth="yes"></point>
      <point x="1823" y="244"></point>
      <point x="1719" y="185"></point>
      <point x="1526" y="185" type="curve" smooth="yes"></point>
      <point x="1198" y="185" type="line"></point>
    </contour>
  </outline>
</glyph>
<glyph name="uni040B" format="1">
  <advance width="1801"></advance>
  <unicode hex="040B"></unicode>
  <outline>
    <contour>
      <point x="1486" y="0" type="line"></point>
      <point x="1486" y="420" type="line" smooth="yes"></point>
      <point x="1486" y="655"></point>
      <point x="1374" y="727"></point>
      <point x="1161" y="727" type="curve" smooth="yes"></point>
      <point x="847" y="727" type="line"></point>
      <point x="847" y="0" type="line"></point>
      <point x="722" y="0" type="line"></point>
      <point x="722" y="1419" type="line"></point>
      <point x="265" y="1419" type="line"></point>
      <point x="265" y="1511" type="line"></point>
      <point x="1310" y="1511" type="line"></point>
      <point x="1310" y="1419" type="line"></point>
      <point x="847" y="1419" type="line"></point>
      <point x="847" y="825" type="line"></point>
      <point x="1159" y="825" type="line" smooth="yes"></point>
      <point x="1473" y="825"></point>
      <point x="1611" y="686"></point>
      <point x="1611" y="421" type="curve" smooth="yes"></point>
      <point x="1611" y="0" type="line"></point>
    </contour>
  </outline>
</glyph>
<glyph name="uni040F" format="1">
  <advance width="1565"></advance>
  <unicode hex="040F"></unicode>
  <outline>
    <contour>
      <point x="1322" y="1452" type="line"></point>
      <point x="1322" y="2" type="line"></point>
      <point x="227" y="2" type="line"></point>
      <point x="227" y="1452" type="line"></point>
      <point x="351" y="1452" type="line"></point>
      <point x="351" y="53" type="line"></point>
      <point x="290" y="89" type="line"></point>
      <point x="1254" y="89" type="line"></point>
      <point x="1198" y="53" type="line"></point>
      <point x="1198" y="1452" type="line"></point>
    </contour>
    <contour>
      <point x="730" y="-293" type="line"></point>
      <point x="730" y="34" type="line"></point>
      <point x="855" y="34" type="line"></point>
      <point x="855" y="-293" type="line"></point>
    </contour>
  </outline>
</glyph>
<glyph name="uni0411" format="1">
  <advance width="1246"></advance>
  <unicode hex="0411"></unicode>
  <outline>
    <contour>
      <point x="109" y="0" type="line"></point>
      <point x="658" y="0" type="line" smooth="yes"></point>
      <point x="987" y="0"></point>
      <point x="1177" y="146"></point>
      <point x="1177" y="433" type="curve" smooth="yes"></point>
      <point x="1177" y="722"></point>
      <point x="1004" y="863"></point>
      <point x="660" y="863" type="curve" smooth="yes"></point>
      <point x="273" y="863" type="line"></point>
      <point x="362" y="787" type="line"></point>
      <point x="362" y="1378" type="line"></point>
      <point x="285" y="1297" type="line"></point>
      <point x="1025" y="1297" type="line"></point>
      <point x="1025" y="1489" type="line"></point>
      <point x="109" y="1489" type="line"></point>
    </contour>
    <contour>
      <point x="362" y="92" type="line"></point>
      <point x="362" y="748" type="line"></point>
      <point x="273" y="667" type="line"></point>
      <point x="647" y="667" type="line" smooth="yes"></point>
      <point x="843" y="667"></point>
      <point x="923" y="606"></point>
      <point x="923" y="431" type="curve" smooth="yes"></point>
      <point x="923" y="255"></point>
      <point x="821" y="195"></point>
      <point x="632" y="195" type="curve" smooth="yes"></point>
      <point x="279" y="195" type="line"></point>
    </contour>
  </outline>
</glyph>
<glyph name="uni0414" format="1">
  <advance width="1431"></advance>
  <unicode hex="0414"></unicode>
  <outline>
    <contour>
      <point x="-29" y="-293" type="line"></point>
      <point x="-29" y="90" type="line"></point>
      <point x="121" y="90" type="line"></point>
      <point x="215" y="155"></point>
      <point x="258" y="378"></point>
      <point x="315" y="1093" type="curve"></point>
      <point x="342" y="1451" type="line"></point>
      <point x="1188" y="1451" type="line"></point>
      <point x="1188" y="90" type="line"></point>
      <point x="1323" y="90" type="line"></point>
      <point x="1323" y="-293" type="line"></point>
      <point x="1212" y="-293" type="line"></point>
      <point x="1212" y="2" type="line"></point>
      <point x="71" y="2" type="line"></point>
      <point x="71" y="-293" type="line"></point>
    </contour>
    <contour>
      <point x="232" y="35" type="curve"></point>
      <point x="196" y="90" type="line"></point>
      <point x="1104" y="90" type="line"></point>
      <point x="1064" y="90" type="line"></point>
      <point x="1063" y="1421" type="line"></point>
      <point x="1125" y="1363" type="line"></point>
      <point x="395" y="1362" type="line"></point>
      <point x="460" y="1407" type="line"></point>
      <point x="431" y="1082" type="line"></point>
      <point x="390" y="581"></point>
      <point x="361" y="160"></point>
    </contour>
  </outline>
</glyph>
<glyph name="uni041B" format="1">
  <advance width="1466"></advance>
  <unicode hex="041B"></unicode>
  <outline>
    <contour>
      <point x="0" y="-25" type="line"></point>
      <point x="100" y="-25" type="line" smooth="yes"></point>
      <point x="407" y="-25"></point>
      <point x="552" y="146"></point>
      <point x="552" y="477" type="curve" smooth="yes"></point>
      <point x="552" y="1356" type="line"></point>
      <point x="476" y="1285" type="line"></point>
      <point x="1292" y="1285" type="line"></point>
      <point x="1213" y="1356" type="line"></point>
      <point x="1213" y="1" type="line"></point>
      <point x="1466" y="0" type="line"></point>
      <point x="1466" y="1477" type="line"></point>
      <point x="299" y="1477" type="line"></point>
      <point x="299" y="459" type="line" smooth="yes"></point>
      <point x="299" y="309"></point>
      <point x="260" y="181"></point>
      <point x="72" y="181" type="curve" smooth="yes"></point>
      <point x="0" y="181" type="line"></point>
    </contour>
  </outline>
</glyph>
<glyph name="uni041F" format="1">
  <advance width="1424"></advance>
  <unicode hex="041F"></unicode>
  <outline>
    <contour>
      <point x="122" y="0" type="line"></point>
      <point x="375" y="0" type="line"></point>
      <point x="375" y="1355" type="line"></point>
      <point x="299" y="1285" type="line"></point>
      <point x="1133" y="1285" type="line"></point>
      <point x="1054" y="1355" type="line"></point>
      <point x="1054" y="0" type="line"></point>
      <point x="1307" y="0" type="line"></point>
      <point x="1307" y="1477" type="line"></point>
      <point x="122" y="1477" type="line"></point>
    </contour>
  </outline>
</glyph>
<glyph name="uni0423" format="1">
  <advance width="1042"/>
  <unicode hex="0423"/>
  <outline>
    <contour>
      <point x="220" y="0" type="line"/>
      <point x="489" y="558" type="line"/>
      <point x="506" y="473" type="line"/>
      <point x="-40" y="1501" type="line"/>
      <point x="73" y="1501" type="line"/>
      <point x="559" y="575" type="line"/>
      <point x="515" y="608" type="line"/>
      <point x="918" y="1501" type="line"/>
      <point x="1036" y="1501" type="line"/>
      <point x="338" y="0" type="line"/>
    </contour>
  </outline>
</glyph>
<glyph name="uni0424" format="1">
  <advance width="1691"></advance>
  <unicode hex="0424"></unicode>
  <outline>
    <contour>
      <point x="722" y="0" type="line"></point>
      <point x="932" y="0" type="line"></point>
      <point x="932" y="143" type="line"></point>
      <point x="1335" y="165"></point>
      <point x="1603" y="390"></point>
      <point x="1603" y="752" type="curve" smooth="yes"></point>
      <point x="1603" y="1111"></point>
      <point x="1333" y="1335"></point>
      <point x="932" y="1354" type="curve"></point>
      <point x="932" y="1484" type="line"></point>
      <point x="722" y="1484" type="line"></point>
      <point x="721" y="1353" type="line"></point>
      <point x="314" y="1328"></point>
      <point x="58" y="1097"></point>
      <point x="58" y="752" type="curve" smooth="yes"></point>
      <point x="58" y="403"></point>
      <point x="316" y="169"></point>
      <point x="721" y="143" type="curve"></point>
    </contour>
    <contour>
      <point x="721" y="339" type="line"></point>
      <point x="426" y="364"></point>
      <point x="285" y="529"></point>
      <point x="285" y="751" type="curve" smooth="yes"></point>
      <point x="285" y="969"></point>
      <point x="427" y="1133"></point>
      <point x="721" y="1158" type="curve"></point>
    </contour>
    <contour>
      <point x="932" y="338" type="curve"></point>
      <point x="932" y="1158" type="line"></point>
      <point x="1237" y="1135"></point>
      <point x="1377" y="970"></point>
      <point x="1377" y="751" type="curve" smooth="yes"></point>
      <point x="1377" y="528"></point>
      <point x="1235" y="361"></point>
    </contour>
  </outline>
</glyph>
<glyph name="uni0427" format="1">
  <advance width="1279"></advance>
  <unicode hex="0427"></unicode>
  <outline>
    <contour>
      <point x="931" y="8" type="line"></point>
      <point x="1150" y="8" type="line"></point>
      <point x="1150" y="1470" type="line"></point>
      <point x="931" y="1470" type="line"></point>
      <point x="931" y="747" type="line"></point>
      <point x="913" y="740"></point>
      <point x="631" y="727"></point>
      <point x="618" y="727" type="curve" smooth="yes"></point>
      <point x="416" y="727"></point>
      <point x="323" y="766"></point>
      <point x="323" y="982" type="curve" smooth="yes"></point>
      <point x="323" y="1470" type="line"></point>
      <point x="112" y="1470" type="line"></point>
      <point x="112" y="953" type="line" smooth="yes"></point>
      <point x="112" y="640"></point>
      <point x="310" y="532"></point>
      <point x="613" y="532" type="curve" smooth="yes"></point>
      <point x="627" y="532"></point>
      <point x="905" y="537"></point>
      <point x="931" y="549" type="curve"></point>
    </contour>
  </outline>
</glyph>
<glyph name="uni0428" format="1">
  <advance width="1434"></advance>
  <unicode hex="0428"></unicode>
  <outline>
    <contour>
      <point x="0" y="0" type="line"></point>
      <point x="1434" y="0" type="line"></point>
      <point x="1434" y="1489" type="line"></point>
      <point x="1203" y="1489" type="line"></point>
      <point x="1203" y="184" type="line"></point>
      <point x="839" y="184" type="line"></point>
      <point x="839" y="1489" type="line"></point>
      <point x="609" y="1489" type="line"></point>
      <point x="609" y="184" type="line"></point>
      <point x="230" y="184" type="line"></point>
      <point x="230" y="1489" type="line"></point>
      <point x="0" y="1489" type="line"></point>
    </contour>
  </outline>
</glyph>
<glyph name="uni0429" format="1">
  <advance width="1691"></advance>
  <unicode hex="0429"></unicode>
  <outline>
    <contour>
      <point x="1459" y="-311" type="line"></point>
      <point x="1665" y="-311" type="line"></point>
      <point x="1665" y="147" type="line"></point>
      <point x="1543" y="147" type="line"></point>
      <point x="1543" y="1496" type="line"></point>
      <point x="1312" y="1496" type="line"></point>
      <point x="1312" y="191" type="line"></point>
      <point x="948" y="191" type="line"></point>
      <point x="948" y="1496" type="line"></point>
      <point x="718" y="1496" type="line"></point>
      <point x="718" y="191" type="line"></point>
      <point x="339" y="191" type="line"></point>
      <point x="339" y="1496" type="line"></point>
      <point x="109" y="1496" type="line"></point>
      <point x="109" y="7" type="line"></point>
      <point x="1459" y="7" type="line"></point>
    </contour>
  </outline>
</glyph>
<glyph name="uni042A" format="1">
  <advance width="1246"></advance>
  <unicode hex="042A"></unicode>
  <outline>
    <contour>
      <point x="178" y="0" type="line"></point>
      <point x="693" y="0" type="line" smooth="yes"></point>
      <point x="1022" y="0"></point>
      <point x="1212" y="146"></point>
      <point x="1212" y="433" type="curve" smooth="yes"></point>
      <point x="1212" y="722"></point>
      <point x="1040" y="863"></point>
      <point x="696" y="863" type="curve" smooth="yes"></point>
      <point x="342" y="863" type="line"></point>
      <point x="431" y="787" type="line"></point>
      <point x="432" y="1476" type="line"></point>
      <point x="-74" y="1476" type="line"></point>
      <point x="-75" y="1285" type="line"></point>
      <point x="265" y="1285" type="line"></point>
      <point x="178" y="1368" type="line"></point>
    </contour>
    <contour>
      <point x="431" y="92" type="line"></point>
      <point x="431" y="751" type="line"></point>
      <point x="341" y="669" type="line"></point>
      <point x="683" y="669" type="line" smooth="yes"></point>
      <point x="879" y="669"></point>
      <point x="959" y="609"></point>
      <point x="959" y="434" type="curve" smooth="yes"></point>
      <point x="959" y="259"></point>
      <point x="856" y="195"></point>
      <point x="667" y="195" type="curve" smooth="yes"></point>
      <point x="347" y="195" type="line"></point>
    </contour>
  </outline>
</glyph>
